<?xml version="1.0" encoding="utf-8"?>
<!-- Generator: Adobe Illustrator 23.1.1, SVG Export Plug-In . SVG Version: 6.00 Build 0)  -->
<svg version="1.1" id="Layer_1" xmlns="http://www.w3.org/2000/svg" xmlns:xlink="http://www.w3.org/1999/xlink" x="0px" y="0px"
	 viewBox="0 0 595.28 595.28" style="enable-background:new 0 0 595.28 595.28;" xml:space="preserve">
<style type="text/css">
	.st0{fill:#CCD5E0;}
	.st1{fill:#4A5568;}
</style>
<g>
	<path class="st0" d="M293.86,291.63c-0.35-1.46-4.03-3.65-7.28-5.59c-2.89-1.73-5.88-3.51-7.45-5.19
		c-3.63-3.88-7.02-4.32-7.07-4.32l-0.21-0.01l-0.15-0.15c-10.33-10.77-7.96-21.49-11.12-31.82c-0.8-2.6-1.55-5.06-2.38-7.43
		c-4.22-11.98-13.29-18.69-16.86-23.1c-2.22-2.74-4.8-5.09-4.25-6.73c5.25-15.69,5.25-33-7.5-46c-1.61-1.64-0.5-8.04-0.5-8.75
		c0-1.05,0.25-2.75-1.5-9.08c-1.1-3.99-4.2-9.8-10.33-14.33c-4.46-3.29-9.88-4.72-19.17-4.33c-2.18,0.09-8.59-3.2-9.75-4
		c-10.85-7.46-10.25-7-18.01-9.77c-0.13-0.79-0.99-3.23-0.24-8.83c-2.63,1.77-8.98,5.77-10.15,6.01c-1.29,0.26-5.91,1.35-8.26,1.73
		c-2.34-0.38-6.97-1.48-8.26-1.73c-1.18-0.23-7.52-4.23-10.15-6.01c0.75,5.61-0.11,8.04-0.24,8.83c-7.76,2.77-7.16,2.31-18.01,9.77
		c-1.16,0.8-7.57,4.09-9.75,4c-9.29-0.39-14.71,1.04-19.17,4.33c-6.13,4.53-9.23,10.34-10.33,14.33c-1.75,6.33-1.5,8.03-1.5,9.08
		c0,0.71,1.11,7.11-0.5,8.75c-12.75,13-12.75,30.31-7.5,46c0.55,1.64-2.03,3.99-4.25,6.73c-3.57,4.41-12.65,11.12-16.86,23.1
		c-0.84,2.37-1.59,4.82-2.38,7.43c-3.16,10.33-0.79,21.05-11.12,31.82l-0.15,0.15l-0.21,0.01c-0.05,0-3.44,0.44-7.07,4.32
		c-1.57,1.68-4.56,3.47-7.45,5.19c-3.25,1.94-6.93,4.14-7.28,5.59c-0.05,0.2-0.02,0.37,0.08,0.53c1.09,1.72,1.84,2.45,4.39,2.2
		c2.7-0.26,10.15-4.35,11.15-5.47c0,0-0.3,1.64-1.34,2.29c-0.18,0.56-2.24,6.94-3.54,10.19l-0.31,0.78
		c-1.43,3.57-5.23,13.04-5.23,15.09c0,0.99,0.61,1.65,1.2,1.78c0.7,0.16,2.86-0.88,2.86-0.88c-0.01,0.03-0.91,3.18-1.07,4.48
		c-0.08,0.67,0.12,1.29,0.58,1.74c0.53,0.53,1.34,0.77,2.21,0.65c1.38-0.18,2.49-2.93,2.77-3.88c0,0-0.18,3.81,0.77,4.05
		c1.73,0.44,2.56-0.31,2.89-0.76c1.82-2.61,4.5-9.31,4.78-10.28c0,0,1.28-3.31,1.8-5.07l1.6-1.99c-0.51,1.36-3.84,12.47-3.8,13.41
		c0.1,0.34,0.26,0.56,0.49,0.66c0.25,0.12,0.59,0.1,0.95-0.06c0.73-0.31,3.27-4.41,4.11-5.76l0.27-0.43
		c0.6-0.97,3.92-8.54,4.45-9.97l0.24-0.64c0.78-2.09,3.14-8.47,3.14-10.2c0-2.22,5.61-13.21,6-14c1.3-2.6,6.98-11.61,14.83-19.06
		c9.5-9,14.23-13.06,17-18c4.19-7.51,5-19.97,5.5-23.5c0.07-0.52,0.14-0.96,0.2-1.33c0.1-0.61,0.69-3.39,1.55-4.92
		c1.76-3.13,5.07-2.96,8.58-10.5c3.42-7.33,3.83-10.33,3.83-10.33c0.13,4.36,8.64,15.95,11.74,21.24
		c-2.58,15.26,1.34,26.6,0.69,29.19c-0.22,0.88-1.81,2.77-2.56,5.17c-1.69,5.39-4.23,13.55-4.23,15.76c0,2.99-1.11,23.14-1.56,24.48
		c-0.38,1.67-9.04,40.59-8.91,47.66c0.28,15.81,3.62,31.53,6,38c2.56,6.96,9.15,17.7,9.2,19.49c0.06,2.24-0.32,4.9,0.14,6.83
		c0.28,1.2,0.49,2.07,0.49,2.53c0,0.33-0.54,3.41-1.16,6.81c-1.38,7.49-5.11,20.44-5,24.33c0.59,20.75,6.02,27.13,8.67,34.67
		c0.77,2.19,1.49,4.25,2.08,6.25c2.6,8.92,9.59,31.96,9.59,34.8c0,0.46,0,0.98,0.01,1.54c0.04,4.13,1.01,7.11,0.27,7.94
		c-1.73,1.57-0.58,5.68-0.14,6.63l0.05,0.15c0.23,1.61-1.24,4.43-3.43,6.55c-1.13,1.1-1.84,2.75-2.6,4.51
		c-1.38,3.2-2.93,6.82-7.53,9.12c-0.31,0.16-0.52,0.5-0.63,1.01c-0.25,1.21,0.19,2.96,0.66,3.54c1.41,0.85,23.47,1.39,27.08,0.25
		c2.88-0.91,2.94-8.24,2.17-12.09c-0.74-3.69-1.64-10.25-1.64-11.91l0.05-0.23c0.83-1.84,0.59-5.47-0.55-8.09l-0.05-0.12l0.01-0.13
		c0.04-0.6,1.11-2.63,1.21-5.45c0.31-8.98-0.13-25.69,0.72-28.79c1.05-3.84,8.8-29.55,7.7-43.16c-0.14-1.67-1.67-8.39-3.33-18
		c-1.55-8.97-6.47-18.9-6.56-20.15c-0.07-0.96-0.04-2.11-0.01-3.56c0.03-1.49,1.63-4.71,1.57-6.96c0-0.75,3.02-8.93,4-15.66
		c1.37-9.43,3.33-26.05,4-29.33c0.45-2.17,0.8-4.31,1.07-6.36c0.28,2.06,0.63,4.19,1.07,6.36c0.67,3.29,2.63,19.9,4,29.33
		c0.98,6.74,4,14.91,4,15.66c-0.05,2.25,1.54,5.47,1.57,6.96c0.03,1.46,0.05,2.6-0.01,3.56c-0.09,1.25-5.01,11.18-6.56,20.15
		c-1.66,9.61-3.2,16.33-3.33,18c-1.1,13.61,6.65,39.32,7.7,43.16c0.84,3.1,0.41,19.81,0.72,28.79c0.1,2.82,1.16,4.85,1.21,5.45
		l0.01,0.13l-0.05,0.12c-1.14,2.63-1.38,6.26-0.55,8.09l0.05,0.23c0,1.65-0.91,8.22-1.64,11.91c-0.77,3.85-0.7,11.18,2.17,12.09
		c3.6,1.14,25.67,0.6,27.08-0.25c0.47-0.58,0.91-2.33,0.66-3.54c-0.11-0.52-0.32-0.86-0.63-1.01c-4.59-2.3-6.15-5.92-7.53-9.12
		c-0.75-1.75-1.47-3.4-2.6-4.51c-2.19-2.12-3.66-4.94-3.43-6.55l0.05-0.15c0.44-0.95,1.59-5.06-0.14-6.63
		c-0.74-0.83,0.23-3.82,0.27-7.94c0-0.56,0.01-1.08,0.01-1.54c0-2.84,6.99-25.88,9.59-34.8c0.59-2,1.31-4.07,2.08-6.25
		c2.65-7.54,8.08-13.92,8.67-34.67c0.11-3.9-3.62-16.85-5-24.33c-0.62-3.4-1.16-6.47-1.16-6.81c0-0.46,0.21-1.33,0.49-2.53
		c0.46-1.94,0.09-4.59,0.14-6.83c0.05-1.8,6.63-12.54,9.2-19.49c2.38-6.47,5.72-22.19,6-38c0.13-7.07-8.53-45.99-8.91-47.66
		c-0.45-1.34-1.56-21.5-1.56-24.48c0-2.21-2.55-10.36-4.23-15.76c-0.75-2.4-2.34-4.29-2.56-5.17c-0.65-2.59,3.27-13.93,0.69-29.19
		c3.1-5.29,11.61-16.87,11.74-21.24c0,0,0.42,3,3.83,10.33c3.51,7.54,6.82,7.37,8.58,10.5c0.86,1.53,1.45,4.32,1.55,4.92
		c0.06,0.36,0.12,0.81,0.2,1.33c0.5,3.53,1.31,15.99,5.5,23.5c2.77,4.94,7.5,9,17,18c7.86,7.45,13.53,16.46,14.83,19.06
		c0.39,0.79,6,11.78,6,14c0,1.74,2.36,8.11,3.14,10.2l0.24,0.64c0.52,1.44,3.84,9.01,4.45,9.97l0.27,0.43
		c0.84,1.35,3.39,5.44,4.11,5.76c0.37,0.16,0.71,0.18,0.95,0.06c0.23-0.1,0.39-0.33,0.49-0.66c0.04-0.94-3.29-12.05-3.8-13.41
		l1.6,1.99c0.51,1.76,1.8,5.07,1.8,5.07c0.28,0.97,2.96,7.67,4.78,10.28c0.32,0.46,1.16,1.21,2.89,0.76
		c0.96-0.25,0.77-4.05,0.77-4.05c0.28,0.95,1.4,3.7,2.77,3.88c0.87,0.12,1.67-0.12,2.21-0.65c0.46-0.45,0.66-1.07,0.58-1.74
		c-0.16-1.3-1.06-4.45-1.07-4.48c0,0,2.16,1.04,2.86,0.88c0.6-0.14,1.2-0.79,1.2-1.78c0-2.05-3.8-11.53-5.23-15.09l-0.31-0.78
		c-1.3-3.25-3.36-9.63-3.54-10.19c-1.04-0.64-1.34-2.29-1.34-2.29c1,1.12,8.46,5.21,11.15,5.47c2.55,0.24,3.3-0.49,4.39-2.2
		C293.88,291.99,293.91,291.83,293.86,291.63z M151.44,110.06c-0.05,0-0.09,0-0.1,0h0.05C151.41,110.06,151.42,110.06,151.44,110.06
		z M151.5,110.06l0.17-0.01l0.17,0.01c-0.06,0-0.11,0-0.17,0C151.62,110.06,151.56,110.06,151.5,110.06z M152,110.06
		c-0.01,0-0.05,0-0.1,0c0.01,0,0.03,0,0.05,0H152z"/>
	<path class="st1" d="M173.64,77.95c0.29-1.89,0.53-3.87,0.63-5.79c0.31-6.27-1.88-13.16-3.13-15.66
		c-1.25-2.51-6.27-9.71-12.22-11.91c-3.03-1.11-5.38-0.85-7.25-0.85s-4.23-0.27-7.25,0.85c-5.96,2.19-10.96,9.4-12.22,11.91
		c-1.25,2.5-3.45,9.4-3.13,15.66c0.1,2.07,0.38,4.21,0.7,6.24c-1.39,0.29-3.64,1.56-3.27,2.62c0.5,1.46,3.62,13.19,4.7,11.55
		c0.13-0.2,0.22-0.54,0.29-0.99c0.35,4.03,1.08,9.63,1.97,10.97c1.25,1.88,8.46,5.33,10.03,5.64c1.42,0.29,5.93,1.6,7.92,1.83v0.05
		c0.07,0,0.18-0.02,0.27-0.02c0.08,0,0.2,0.02,0.27,0.02v-0.05c1.99-0.23,6.5-1.54,7.92-1.83c1.57-0.31,8.77-3.76,10.03-5.64
		c0.91-1.37,1.66-7.23,2-11.28c0.06,0.37,0.15,0.66,0.26,0.83c1.08,1.64,4.19-10.1,4.7-11.55C177.2,79.5,175.04,78.26,173.64,77.95z
		"/>
	<g>
		<g id="hands">
			<path class="st1" d="M259.65,278.89c-0.99,0.5-0.75,7.38-0.72,9.79c0.04,2.41,3.78,16.52,7.26,15.98
				c3.48-0.55,4.82-3.08,5.48-4.54c0.67-1.45,4.97-4.1,5.63-5.45s-6.07-11.95-7.26-12.71c-1.19-0.76-1.95-3.51-4.01-4.18
				C265.2,277.51,260.24,278.59,259.65,278.89z"/>
			<path class="st1" d="M270.6,279.76c-0.13-0.87,1.54-1.53,2.13-1.25s9.98,5.7,10.94,6.49c3.01,2.45,9.69,4.77,9.28,6.14
				c-0.95,3.13-8.64,1-11.92-1.7C277.75,286.73,270.95,282.11,270.6,279.76z"/>
			<path class="st1" d="M279.37,296.75c-0.76,0.12-2.17,0.45-1.99,2.17c0.17,1.72,6.19,15.86,7.56,17.25
				c1.37,1.4,2.25-0.23,1.82-2.61C286.32,311.18,280.24,296.62,279.37,296.75z"/>
			<path class="st1" d="M275.33,300.45c-0.62,0.52-1.41,1.48-1.82,2.61c-0.42,1.13,7.14,19.55,8.28,19.98
				c1.14,0.41,2.08-0.57,2.01-2.28C283.73,319.05,276.02,299.87,275.33,300.45z"/>
			<path class="st1" d="M271.67,304.19c-0.89,0.35-1.58,1.04-1.67,2.09c-0.09,1.06,5.07,16.5,7.55,16.08
				c2.48-0.43-0.11-4.91-0.45-5.9C276.77,315.48,272.11,304.01,271.67,304.19z"/>
			<path class="st1" d="M264.71,306.45c-0.14-0.89,2.27,0.83,2.72,1.72c0.46,0.89,3.74,9.39,3,9.62
				C267.81,318.64,265.34,310.34,264.71,306.45z"/>
			<path class="st1" d="M43.79,278.89c0.99,0.5,0.75,7.38,0.72,9.79c-0.04,2.41-3.78,16.52-7.26,15.98
				c-3.48-0.55-4.82-3.08-5.48-4.54c-0.67-1.45-4.97-4.1-5.63-5.45c-0.66-1.35,6.07-11.95,7.26-12.71c1.19-0.76,1.95-3.51,4.01-4.18
				C38.23,277.51,43.19,278.59,43.79,278.89z"/>
			<path class="st1" d="M32.84,279.76c0.13-0.87-1.54-1.53-2.13-1.25s-9.98,5.7-10.94,6.49c-3.01,2.45-9.69,4.77-9.28,6.14
				c0.95,3.13,8.64,1,11.92-1.7C25.69,286.73,32.49,282.11,32.84,279.76z"/>
			<path class="st1" d="M24.06,296.75c0.76,0.12,2.17,0.45,1.99,2.17c-0.17,1.72-6.19,15.86-7.56,17.25
				c-1.37,1.4-2.25-0.23-1.82-2.61C17.11,311.18,23.2,296.62,24.06,296.75z"/>
			<path class="st1" d="M28.1,300.45c0.62,0.52,1.41,1.48,1.82,2.61c0.42,1.13-7.14,19.55-8.28,19.98
				c-1.14,0.41-2.08-0.57-2.01-2.28C19.71,319.05,27.42,299.87,28.1,300.45z"/>
			<path class="st1" d="M31.77,304.19c0.89,0.35,1.58,1.04,1.67,2.09c0.09,1.06-5.07,16.5-7.55,16.08c-2.48-0.43,0.11-4.91,0.45-5.9
				C26.67,315.48,31.32,304.01,31.77,304.19z"/>
			<path class="st1" d="M38.72,306.45c0.14-0.89-2.27,0.83-2.72,1.72c-0.46,0.89-3.74,9.39-3,9.62
				C35.62,318.64,38.1,310.34,38.72,306.45z"/>
		</g>
		<g id="deltoids-front">
			<path d="M198.47,130.1c5.22,0.22,15.86-0.91,21.95,4.52c3.87,3.45,4.25,14.92,1.75,25.67
				C219.78,151.59,208.69,137.27,198.47,130.1z"/>
			<path d="M190.9,131.58c8.92,1.24,25.06,13.42,25.51,28.83C203.97,160.2,191.31,142.57,190.9,131.58z"/>
			<path d="M105.96,130.1c-5.22,0.22-15.86-0.91-21.95,4.52c-3.87,3.45-4.25,14.92-1.75,25.67
				C84.66,151.59,95.75,137.27,105.96,130.1z"/>
			<path d="M113.54,131.58c-8.92,1.24-25.06,13.42-25.51,28.83C100.47,160.2,113.12,142.57,113.54,131.58z"/>
		</g>
		<g id="chest">
			<path id="chest-right" d="M154.92,140.34c1.14-0.78,12.18-12.52,26.17-5.39c12.17,6.21,21.49,25.51,21.33,26
				c-0.22,0.67-27.08,16.62-37.51,16.62c-6.09,0-10.65-4.36-10.65-6.15C154.26,169.64,153.61,141.23,154.92,140.34z"/>
			<path id="chest-left" d="M148.52,140.34c-1.14-0.78-12.18-12.52-26.17-5.39c-12.17,6.21-21.49,25.51-21.33,26
				c0.22,0.67,27.08,16.62,37.51,16.62c6.09,0,10.65-4.36,10.65-6.15C149.18,169.64,149.83,141.23,148.52,140.34z"/>
		</g>
		<g id="biceps">
			<path id="biceps-right-2" d="M209.65,163.07c1.78-0.36,14.41,1.28,18.02,3.46c11.38,6.88,11.25,18.25,8.12,26.62
				c-1.51,4.04-1.1,16.15-7,16.15s-19.34-19.56-20.71-25.69C206.72,177.49,205.11,163.97,209.65,163.07z"/>
			<path id="biceps-right-1" d="M220.9,212.11c-0.19,0.03-0.39,0.01-0.58-0.06c-8.89-3.21-13.34-11.25-15.26-14.79
				c-0.34-0.62-0.69-2.74-0.69-2.74c-0.35-0.37-1.49-4.92-1.02-5.22c0.46-0.31,1.12-0.26,1.47,0.11l0.46,0.49
				c2.65,2.86,8.47,16.21,16.9,19.25c0.52,0.19,0.74,0.7,0.49,1.14C222.49,210.59,222.55,212.16,220.9,212.11z"/>
			<path id="biceps-left-2" d="M94.79,163.07c-1.78-0.36-14.41,1.28-18.02,3.46c-11.38,6.88-11.25,18.25-8.12,26.62
				c1.51,4.04,1.1,16.15,7,16.15s19.34-19.56,20.71-25.69C97.71,177.49,99.33,163.97,94.79,163.07z"/>
			<path id="biceps-left-1" d="M83.54,212.11c0.19,0.03,0.39,0.01,0.58-0.06c8.89-3.21,13.34-11.25,15.26-14.79
				c0.34-0.62,0.69-2.74,0.69-2.74c0.35-0.37,1.49-4.92,1.02-5.22c-0.46-0.31-1.12-0.26-1.47,0.11l-0.46,0.49
				c-2.65,2.86-8.47,16.21-16.9,19.25c-0.52,0.19-0.74,0.7-0.49,1.14C81.94,210.59,81.89,212.16,83.54,212.11z"/>
		</g>
		<g id="forearms-front">
			<path id="forearm-4-right" d="M232.42,212.2c-1.25,12.88,4.89,19.37,5.67,22.08c1.62,5.66,13.12,17.18,16.44,21.87
				c3.86,5.46,8.07,15.98,9.35,16.2s-5.44-19.37-6.08-21.03C255.12,244.39,256.55,222.95,232.42,212.2z"/>
			<path id="forearm-3-right" d="M219.68,213.98c1.39,0.02,15.19,17.3,14.9,20.44c-0.3,3.14-6.48-0.53-10.44-2.84
				c-3.97-2.31-6.18-4.47-6.06-5.82C218.2,224.42,217.69,213.95,219.68,213.98z"/>
			<path id="forearm-2-right" d="M229.32,237.99c19.77,2.96,27.63,32.44,27.94,34.83c-3.88-5.12-16.8-19.55-17.86-20.9
				C237.27,249.18,231.13,240.97,229.32,237.99z"/>
			<path id="forearm-1-right" d="M222.16,232.27c0,0,0.1,0.17,0.28,0.48c0.21,0.29,0.38,0.81,0.8,1.33
				c0.39,0.53,0.84,1.18,1.32,1.93c0.44,0.75,1.17,1.54,1.77,2.48c1.2,1.89,3.61,2.93,5.16,5.25c0.72,1.2,1.63,2.59,2.44,3.82
				c0.87,1.18,1.75,2.27,2.7,3.42c1.99,2.23,5.04,6.49,7.12,8.41c1.01,0.99,1.68,2.25,2.61,3.16c0.93,0.9,1.19,1.83,2.12,2.5
				c3.6,2.85,5.57,6.13,5.57,6.13c0.06,0.03,0.06,0.11,0.01,0.18c-0.05,0.06-0.5-0.03-0.2,0.04c0,0-3.03-2.54-6.95-5.09
				c-1.02-0.6-1.93-1.44-2.97-2.27c-1.01-0.85-2.08-1.74-3.19-2.66c-2.26-1.82-5.35-6.11-7.56-8.25c-1.08-1.08-2-2.29-3-3.41
				c-0.96-1.15-1.96-2.24-2.76-3.42c-1.58-2.38-2.18-4.47-3.13-6.57c-0.99-2.04-1.66-3.94-2.02-5.25c-0.35-1.3-0.39-2.1-0.39-2.1
				c0-0.07,0.06-0.14,0.13-0.16C222.08,232.2,222.13,232.23,222.16,232.27z"/>
			<path id="forearm-4-left" d="M71.02,212.2c1.25,12.88-4.89,19.37-5.67,22.08c-1.62,5.66-13.12,17.18-16.44,21.87
				c-3.86,5.46-8.07,15.98-9.35,16.2s5.44-19.37,6.08-21.03C48.32,244.39,46.89,222.95,71.02,212.2z"/>
			<path id="forearm-3-left" d="M84.76,213.98c-1.39,0.02-15.19,17.3-14.9,20.44c0.3,3.14,6.48-0.53,10.44-2.84
				c3.97-2.31,6.18-4.47,6.06-5.82C86.23,224.42,86.75,213.95,84.76,213.98z"/>
			<path id="forearm-2-left" d="M75.12,237.99c-19.77,2.96-27.63,32.44-27.94,34.83c3.88-5.12,16.8-19.55,17.86-20.9
				C67.17,249.18,73.3,240.97,75.12,237.99z"/>
			<path id="forearm-1-left" d="M82.42,232.22c0.07,0.02,0.14,0.09,0.13,0.16c0,0-0.04,0.8-0.39,2.1
				c-0.36,1.31-1.03,3.22-2.02,5.25c-0.95,2.09-1.55,4.19-3.13,6.57c-0.8,1.18-1.81,2.27-2.76,3.42c-1,1.12-1.92,2.33-3,3.41
				c-2.21,2.13-5.3,6.43-7.56,8.25c-1.11,0.92-2.18,1.82-3.19,2.66c-1.04,0.83-1.95,1.67-2.97,2.27c-3.92,2.54-6.95,5.09-6.95,5.09
				c0.3-0.07-0.15,0.01-0.2-0.04c-0.05-0.06-0.05-0.14,0.01-0.18c0,0,1.97-3.28,5.57-6.13c0.94-0.67,1.19-1.59,2.12-2.5
				c0.92-0.9,1.6-2.17,2.61-3.16c2.07-1.93,5.12-6.18,7.12-8.41c0.95-1.15,1.84-2.24,2.7-3.42c0.81-1.23,1.72-2.62,2.44-3.82
				c1.55-2.32,3.96-3.36,5.16-5.25c0.6-0.94,1.33-1.73,1.77-2.48c0.47-0.74,0.92-1.39,1.32-1.93c0.41-0.52,0.59-1.04,0.8-1.33
				c0.18-0.31,0.28-0.48,0.28-0.48C82.3,232.23,82.36,232.2,82.42,232.22z"/>
		</g>
		<g id="trapezius-front">
			<path id="trapezius-right" d="M169.91,115.34c9.76-1.18,19.6,9.3,21.36,11.06s-10.05,2.26-11.06,2.26
				c-1,0-9.05-7.04-10.3-9.05C168.66,117.6,168.17,115.55,169.91,115.34z"/>
			<path id="trapezius-left" d="M134.52,115.34c-9.76-1.18-19.6,9.3-21.36,11.06s10.05,2.26,11.06,2.26
				c1,0,9.05-7.04,10.3-9.05C135.78,117.6,136.27,115.55,134.52,115.34z"/>
		</g>
		<g id="neck-front">
			<path d="M156.58,112.13c-4.13,0.9-9.04,0.19-9.36,0.11c-2.19-0.55,4.64,17.09,4.64,17.09l0.05-0.28l0.03,0.17
				C151.95,129.23,158.65,111.68,156.58,112.13z"/>
			<path d="M167.4,122.95c1.07,2.13,6.97,6.48,4.47,7.59c-2.51,1.11-8.09,1.04-8.09-0.07S166.84,121.83,167.4,122.95z"
				/>
			<path d="M166.3,105.78c3.62,1.25-0.34,10.08-0.56,11.6s-9.78,19.12-10.43,20.43c-0.65,1.3-1.74-7.82-0.65-9.56
				C155.74,126.5,165.47,105.5,166.3,105.78z"/>
			<path d="M137.65,107.6c-1.3,0-0.44,8.25-0.22,9.77s9.78,19.12,10.43,20.43c0.65,1.3,1.74-7.82,0.65-9.56
				C147.42,126.5,138.52,107.6,137.65,107.6z"/>
			<path d="M137.04,122.95c-1.07,2.13-6.97,6.48-4.47,7.59c2.51,1.11,8.09,1.04,8.09-0.07S137.59,121.83,137.04,122.95z
				"/>
		</g>
		<g id="abs-front">
			<path id="abs-9-right" d="M155.34,179.06c-3.13,0.5-0.52,10.39-0.26,11.69c0.26,1.3,16.88,1.3,19.74,6.49
				s0.78-5.72,0.78-7.79C175.6,187.37,168.33,176.98,155.34,179.06z"/>
			<path id="abs-8-right" d="M153.96,195.47c-1.51,0.35,0,12.89,1.03,17.01c0.28,1.12,17.79-1.29,19.07,2.32
				c1.29-3.61,1.55-6.44,1.55-8.5S167.11,192.38,153.96,195.47z"/>
			<path id="abs-7-right" d="M155.53,216.53c-1.14,1.14-0.46,14.72-0.23,15.64c0.23,0.92,5.29-2.07,7.59-2.3
				s10.12,0.46,11.04-0.92s1.38-8.51-0.46-10.81C171.63,215.84,159.9,212.16,155.53,216.53z"/>
			<path id="abs-6-right" d="M162.61,233.23c-2.07,1.65-5.67,2.95-6.35,6.12c-0.68,3.18-1.13,33.79-1.13,36.06
				c0,2.27,1.59,4.31,4.31,4.31s5.44-6.81,6.58-10.43c1.14-3.63,3.63-14.51,4.08-17.69c0.45-3.18,4.08-17.92,2.04-19.28
				C170.09,230.96,164.88,231.41,162.61,233.23z"/>
			<path id="abs-5-right" d="M178.1,227.24c-0.16,2.6-2.84,26.54-3.35,28.71c-0.51,2.17-0.53,8.22,0.67,8
				c1.19-0.22,8.29-3.9,8.62-6.29c0.34-2.39,1.38-16.21,1.38-19.04c0-2.82,7.04-21,0.67-23
				C185.06,215.29,178.27,224.42,178.1,227.24z"/>
			<path id="abs-4-right" d="M179.89,207.35c0,0-0.65,6.95,0.22,7.82c0.87,0.87,6.74-4.13,7.17-5.43
				c0.43-1.3,3.34-12.57,1.6-10.4C187.15,201.52,185.76,205.18,179.89,207.35z"/>
			<path id="abs-3-right" d="M180.53,195.36c-0.25,2.04-1.28,8.67,0,8.92c1.27,0.26,7.65-8.84,8.42-10.88
				c0.77-2.04,0.34-3.71-0.43-3.19C187.76,190.72,180.79,193.32,180.53,195.36z"/>
			<path id="abs-2-right" d="M179.85,184.48c-0.69,1.38-2.03,8.29,1.06,7.78c3.09-0.52,9.75-7.91,9.38-10.25
				C189.85,179.31,180.37,183.45,179.85,184.48z"/>
			<path id="abs-1-right" d="M176.46,176.26c-1.36,1.33,1.2,6.13,2.74,5.67c1.37-0.41,11.7-6.11,11.01-8.87
				C189.63,170.69,176.77,175.96,176.46,176.26z"/>
			<path id="abs-9-left" d="M148.1,179.06c3.13,0.5,0.52,10.39,0.26,11.69c-0.26,1.3-16.88,1.3-19.74,6.49
				s-0.78-5.72-0.78-7.79C127.84,187.37,135.11,176.98,148.1,179.06z"/>
			<path id="abs-8-left" d="M149.48,195.47c1.51,0.35,0,12.89-1.03,17.01c-0.28,1.12-17.79-1.29-19.07,2.32
				c-1.29-3.61-1.55-6.44-1.55-8.5S136.33,192.38,149.48,195.47z"/>
			<path id="abs-7-left" d="M147.9,216.53c1.14,1.14,0.46,14.72,0.23,15.64c-0.23,0.92-5.29-2.07-7.59-2.3
				s-10.12,0.46-11.04-0.92s-1.38-8.51,0.46-10.81C131.81,215.84,143.53,212.16,147.9,216.53z"/>
			<path id="abs-6-left" d="M139.83,233.23c2.07,1.65,5.67,2.95,6.35,6.12c0.68,3.18,1.13,33.79,1.13,36.06
				c0,2.27-1.59,4.31-4.31,4.31s-5.44-6.81-6.58-10.43c-1.14-3.63-3.63-14.51-4.08-17.69c-0.45-3.18-4.08-17.92-2.04-19.28
				C132.34,230.96,137.56,231.41,139.83,233.23z"/>
			<path id="abs-5-left" d="M125.33,227.24c0.16,2.6,2.84,26.54,3.35,28.71c0.51,2.17,0.53,8.22-0.67,8
				c-1.19-0.22-8.29-3.9-8.62-6.29c-0.34-2.39-1.38-16.21-1.38-19.04c0-2.82-7.04-21-0.67-23
				C118.37,215.29,125.16,224.42,125.33,227.24z"/>
			<path id="abs-4-left" d="M123.54,207.35c0,0,0.65,6.95-0.22,7.82c-0.87,0.87-6.74-4.13-7.17-5.43
				c-0.44-1.3-3.34-12.57-1.6-10.4C116.29,201.52,117.68,205.18,123.54,207.35z"/>
			<path id="abs-3-left" d="M122.91,195.36c0.25,2.04,1.28,8.67,0,8.92c-1.27,0.26-7.65-8.84-8.42-10.88
				c-0.77-2.04-0.34-3.71,0.43-3.19C115.68,190.72,122.65,193.32,122.91,195.36z"/>
			<path id="abs-2-left" d="M123.59,184.48c0.69,1.38,2.03,8.29-1.06,7.78c-3.09-0.52-9.75-7.91-9.38-10.25
				C113.59,179.31,123.07,183.45,123.59,184.48z"/>
			<path id="abs-1-left" d="M126.97,176.26c1.36,1.33-1.2,6.13-2.74,5.67c-1.37-0.41-11.7-6.11-11.01-8.87
				C113.81,170.69,126.67,175.96,126.97,176.26z"/>
		</g>
		<g id="lats-front">
			<path id="last-right" d="M199.96,165.94c-2.46,2.94-8.21,14.49-8.21,16.67c0,1.81,0.08,19.01,1.76,17.19
				c2.33-2.52,5.89-9.53,6.18-14.68C200.13,177.51,199.3,172.48,199.96,165.94z"/>
			<path id="lats-left" d="M103.48,165.94c2.46,2.94,8.21,14.49,8.21,16.67c0,1.81-0.08,19.01-1.76,17.19
				c-2.33-2.52-5.89-9.53-6.18-14.68C103.31,177.51,104.14,172.48,103.48,165.94z"/>
		</g>
		<g id="groin">
			<path class="st1" d="M154.21,286.39c-0.8,1.65-0.6,24.13,2.12,30.18s3.1-3.47,3.48-5.71c0.38-2.23,3.57-5.93,2.12-8.55
				C160.47,299.7,154.41,285.98,154.21,286.39z"/>
			<path class="st1" d="M166.55,276.59c-1.22,1.26-9.18,8.04-9.02,9.19c0.24,1.74,4.96,13.19,6.71,14.25s1.41-6.7,3.07-10.96
				c1.77-4.55,13.78-21.85,13.77-22.47C181.08,266.14,171.28,271.72,166.55,276.59z"/>
			<path class="st1" d="M149.23,286.39c0.8,1.65,0.6,24.13-2.12,30.18s-3.1-3.47-3.48-5.71c-0.38-2.23-3.57-5.93-2.12-8.55
				C142.96,299.7,149.03,285.98,149.23,286.39z"/>
			<path class="st1" d="M136.88,276.59c1.22,1.26,9.18,8.04,9.02,9.19c-0.24,1.74-4.96,13.19-6.71,14.25s-1.41-6.7-3.07-10.96
				c-1.77-4.55-13.78-21.85-13.77-22.47C122.36,266.14,132.15,271.72,136.88,276.59z"/>
		</g>
		<g id="quadriceps">
			<path id="quadriceps-right-4" d="M185.27,264.53c1.78,19.32-23.18,73.67-28.18,91.42
				C150.88,306.74,181.38,282.91,185.27,264.53z"/>
			<path id="quadriceps-right-3" d="M176.55,309.83c2.45-5.08,14.34-50.78,14.62-49.54
				c9.94,44.12-10.9,93.58-12.12,99.25c-1.23,5.67-2.41,22.44-2.6,23.96c-0.2,1.53-2.81,1.34-3.7,0.05
				C171.86,382.25,165.57,332.57,176.55,309.83z"/>
			<path id="quadriceps-right-2" d="M195.75,300.28c-2.58,16.6-11.94,52.83-13.33,59.5
				c-1.23,5.87-1.91,17.83-1.87,20.87c0.04,3.04,0.72,5.21,1.81,5.19c0.57-0.01,17.08-21.43,18.32-28.94
				C205.75,341.4,196.97,315.58,195.75,300.28z"/>
			<path id="quadriceps-right-1" d="M167.13,334.33c1.73-1.01,0.11,22.12,0.37,25.16s5.13,29.35-0.75,28.56
				s-8.63-19.47-8.7-24.9C157.98,357.72,165.62,335.22,167.13,334.33z"/>
			<path id="quadriceps-left-4" d="M118.17,264.53c-1.78,19.32,23.18,73.67,28.18,91.42
				C152.56,306.74,122.06,282.91,118.17,264.53z"/>
			<path id="quadriceps-left-3" d="M126.89,309.83c-2.45-5.08-14.34-50.78-14.62-49.54
				c-9.94,44.12,10.9,93.58,12.12,99.25c1.23,5.67,2.41,22.44,2.6,23.96c0.2,1.53,2.81,1.34,3.7,0.05
				C131.57,382.25,137.86,332.57,126.89,309.83z"/>
			<path id="quadriceps-left-2" d="M107.68,300.28c2.58,16.6,11.94,52.83,13.33,59.5c1.23,5.87,1.91,17.83,1.87,20.87
				s-0.72,5.21-1.81,5.19c-0.57-0.01-17.08-21.43-18.32-28.94C97.68,341.4,106.47,315.58,107.68,300.28z"/>
			<path id="quadriceps-left-1" d="M136.31,334.33c-1.73-1.01-0.11,22.12-0.37,25.16s-5.13,29.35,0.75,28.56
				s8.63-19.47,8.7-24.9C145.46,357.72,137.82,335.22,136.31,334.33z"/>
		</g>
		<g id="calves-front">
			<path id="calves-right-2" d="M163.09,416.28c-0.76,0.78-7.48,26.36-7.42,30.62c0.2,13.5,9.81,48.28,9.85,51.32
				c0.04,3.04,2.25-9.62,2.43-12.45C168.13,482.96,172.9,436.74,163.09,416.28z"/>
			<path id="calves-right-1" d="M190.67,418.91c0,0,2.93,22.39,2.42,25.38c-2.54,14.79-14.88,41.91-15.29,43.87
				c-0.41,1.96-5.62,18.29-5.88,15.25c-0.26-3.04,1.38-10.43,1.79-12.61c0.41-2.18,4.82-29.84,5.43-32.88
				C179.75,454.87,190.67,418.91,190.67,418.91z"/>
			<path id="calves-left-2" d="M140.35,416.28c0.76,0.78,7.48,26.36,7.42,30.62c-0.2,13.5-9.81,48.28-9.85,51.32
				c-0.04,3.04-2.25-9.62-2.43-12.45C135.3,482.96,130.54,436.74,140.35,416.28z"/>
			<path id="calves-left-1" d="M112.77,418.91c0,0-2.93,22.39-2.42,25.38c2.54,14.79,14.88,41.91,15.29,43.87
				s5.62,18.29,5.88,15.25c0.26-3.04-1.38-10.43-1.79-12.61c-0.41-2.18-4.82-29.84-5.43-32.88
				C123.69,454.87,112.77,418.91,112.77,418.91z"/>
		</g>
		<g id="feet">
			<path class="st1" d="M172.33,515.09c1.29-0.19,1.6,5.63,1.63,8.02s2.47,6.27,1.19,7.81s-4.91,3.67-7.04,6.3
				c-2.14,2.64-5.11,7.89-5.35,5.94c-0.25-1.95-1.01-10.42,0.05-12.61C163.85,528.36,167.34,515.8,172.33,515.09z"/>
			<path class="st1" d="M176.96,534.36c0.85,1.65,9.6,12.06,9.63,13.8c0.02,1.74-11.77,2.16-13.08,2.18
				c-1.3,0.02-1.37-0.04-2.51-3.5c-1.13-3.46-1.18-7.16-0.32-8.04C171.54,537.93,176.52,533.5,176.96,534.36z"/>
			<path class="st1" d="M167.26,540.84c-1.14,0.25-3.2,4.17-3.19,5.48c0.02,1.3-0.37,3.55,0.71,3.54c1.09-0.01,4.36,1.03,4.55-1.15
				C169.52,546.53,169.43,540.38,167.26,540.84z"/>
			<path class="st1" d="M164.75,509.87c0.74-0.45,3.15-2.48,4.49-3.29c1.34-0.81,2.71,2.72,1.59,3.55
				c-1.12,0.82-6.1,10.62-6.58,11.68C163.77,522.88,163.41,510.69,164.75,509.87z"/>
			<path class="st1" d="M131.11,515.09c-1.29-0.19-1.6,5.63-1.63,8.02s-2.47,6.27-1.19,7.81s4.91,3.67,7.04,6.3
				c2.14,2.64,5.11,7.89,5.35,5.94c0.25-1.95,1.01-10.42-0.05-12.61C139.58,528.36,136.1,515.8,131.11,515.09z"/>
			<path class="st1" d="M126.48,534.36c-0.85,1.65-9.6,12.06-9.63,13.8c-0.02,1.74,11.77,2.16,13.08,2.18
				c1.3,0.02,1.37-0.04,2.51-3.5c1.13-3.46,1.18-7.16,0.32-8.04C131.9,537.93,126.92,533.5,126.48,534.36z"/>
			<path class="st1" d="M136.18,540.84c1.14,0.25,3.2,4.17,3.19,5.48c-0.02,1.3,0.37,3.55-0.71,3.54c-1.09-0.01-4.36,1.03-4.55-1.15
				C133.91,546.53,134.01,540.38,136.18,540.84z"/>
			<path class="st1" d="M138.69,509.87c-0.74-0.45-3.15-2.48-4.49-3.29c-1.34-0.81-2.71,2.72-1.59,3.55
				c1.12,0.82,6.1,10.62,6.58,11.68C139.67,522.88,140.03,510.69,138.69,509.87z"/>
		</g>
		<g id="legs-front">
			<path class="st1" d="M165.25,389.55c0.31,14.55,17.5,23.73,6.17,49.1C171.43,428.88,160.78,414.42,165.25,389.55z"/>
			<path class="st1" d="M188.52,382.56c0.47-1.9-2.11,20.1-2.05,22.07c0.05,1.97-6.23,3.7-7.9,5.88c-0.22-1.6,1.13-5.79,1.48-7.29
				C180.39,401.72,186.21,391.96,188.52,382.56z"/>
			<path class="st1" d="M169.69,393.72c-0.04-2.76,2.33-3.66,4.97-3.7c2.64-0.03,4.55,0.81,4.58,3.57
				c0.03,2.32-4.91,14.28-5.8,12.98c-0.82-1.19-2.61-6.95-3.09-9.89C169.94,395.64,169.7,394.58,169.69,393.72z"/>
			<path class="st1" d="M185.69,410.75c1.35,3.67,0.68,18.46-2.03,26.76c-2.72,8.29-6.84,25.08-8.07,30.53
				c-1.23,5.45-6.51,33.55-6.91,35.95c-0.4,2.39-2.57,2.86-2.39-0.19c0.18-3.04,4.35-16.14,4.53-19.18s1.25-34.86,3.24-44.46
				C176.36,428.96,185.05,409.01,185.69,410.75z"/>
			<path class="st1" d="M138.19,389.55c-0.31,14.55-17.5,23.73-6.17,49.1C132.01,428.88,142.66,414.42,138.19,389.55z"/>
			<path class="st1" d="M114.92,382.56c-0.47-1.9,2.11,20.1,2.05,22.07c-0.05,1.97,6.23,3.7,7.9,5.88c0.22-1.6-1.13-5.79-1.48-7.29
				C123.05,401.72,117.23,391.96,114.92,382.56z"/>
			<path class="st1" d="M133.75,393.72c0.04-2.76-2.33-3.66-4.97-3.7c-2.64-0.03-4.55,0.81-4.59,3.57
				c-0.03,2.32,4.91,14.28,5.8,12.98c0.82-1.19,2.61-6.95,3.09-9.89C133.49,395.64,133.74,394.58,133.75,393.72z"/>
			<path class="st1" d="M117.74,410.75c-1.35,3.67-0.68,18.46,2.03,26.76c2.72,8.29,6.84,25.08,8.07,30.53s6.51,33.55,6.91,35.95
				c0.4,2.39,2.57,2.86,2.39-0.19c-0.18-3.04-4.35-16.14-4.53-19.18s-1.25-34.86-3.24-44.46
				C127.08,428.96,118.39,409.01,117.74,410.75z"/>
		</g>
	</g>
</g>
<g>
	<path class="st1" d="M465.82,75.42c0.45-9.46,0.58-16.46-5.45-24.34c-5.81-7.6-15.28-7.43-16.85-7.34
		c-1.53-0.08-10.79-0.26-16.6,7.34c-6.13,8.02-5.89,15.13-5.42,24.83c-1.19-0.11-4.51,1.48-4.06,2.78
		c0.52,1.51,3.76,13.71,4.88,12.01c0.21-0.31,0.32-0.98,0.38-1.87c0.88,6.56,2.05,12.38,2.35,14.52
		c0.49,3.42,3.33-19.54,16.04-20.03h5.11c12.7,0.49,15.54,23.45,16.03,20.03c0.3-2.13,1.46-7.86,2.33-14.35
		c0.07,0.56,0.17,0.98,0.32,1.21c1.12,1.7,4.36-10.5,4.88-12.01C470.21,76.94,467.09,75.4,465.82,75.42z"/>
	<path class="st0" d="M585.8,291.63c-0.35-1.46-4.03-3.65-7.28-5.59c-2.89-1.73-5.88-3.51-7.46-5.19c-3.63-3.88-7.02-4.32-7.07-4.32
		l-0.21-0.01l-0.15-0.15c-10.33-10.77-7.96-21.49-11.12-31.82c-0.8-2.6-1.55-5.06-2.38-7.43c-4.21-11.98-13.29-18.69-16.86-23.1
		c-2.22-2.74-4.8-5.09-4.25-6.73c5.25-15.69,5.25-33-7.5-46c-1.61-1.64-0.5-8.04-0.5-8.75c0-1.05,0.25-2.75-1.5-9.08
		c-1.1-3.99-4.2-9.8-10.33-14.33c-4.46-3.29-9.88-4.72-19.17-4.33c-2.18,0.09-8.59-3.2-9.75-4c-10.85-7.46-10.25-7-18.01-9.77
		c-0.12-0.73-0.86-2.88-0.38-7.63c-0.15-0.36-0.36-1-0.63-1.85c-0.05-0.14-0.1-0.3-0.15-0.48c-1.73-5.44-5.77-17.38-14.89-17.73
		h-5.11c-11.17,0.43-14.71,18.21-15.74,20.19c0.46,4.66-0.27,6.77-0.39,7.49c-7.76,2.77-7.16,2.31-18.01,9.77
		c-1.16,0.8-7.57,4.09-9.75,4c-9.29-0.39-14.71,1.04-19.17,4.33c-6.13,4.53-9.23,10.34-10.33,14.33c-1.75,6.33-1.5,8.03-1.5,9.08
		c0,0.71,1.11,7.11-0.5,8.75c-12.75,13-12.75,30.31-7.5,46c0.55,1.64-2.03,3.99-4.25,6.73c-3.57,4.41-12.65,11.12-16.87,23.1
		c-0.84,2.37-1.59,4.82-2.38,7.43c-3.16,10.33-0.79,21.05-11.12,31.82l-0.15,0.15l-0.21,0.01c-0.05,0-3.45,0.44-7.07,4.32
		c-1.57,1.68-4.56,3.47-7.45,5.19c-3.25,1.94-6.93,4.14-7.28,5.59c-0.05,0.2-0.02,0.37,0.08,0.53c1.09,1.72,1.84,2.45,4.39,2.2
		c2.7-0.26,10.16-4.35,11.15-5.47c0,0-0.3,1.64-1.34,2.29c-0.18,0.56-2.24,6.94-3.54,10.19l-0.31,0.78
		c-1.43,3.57-5.23,13.04-5.23,15.09c0,0.99,0.61,1.65,1.2,1.78c0.7,0.16,2.86-0.88,2.86-0.88c-0.01,0.03-0.91,3.18-1.07,4.48
		c-0.08,0.67,0.12,1.29,0.58,1.74c0.54,0.53,1.34,0.77,2.21,0.65c1.38-0.18,2.49-2.93,2.78-3.88c0,0-0.18,3.81,0.78,4.05
		c1.72,0.44,2.56-0.31,2.88-0.76c1.82-2.61,4.5-9.31,4.78-10.28c0,0,1.28-3.31,1.79-5.07l1.6-1.99c-0.51,1.36-3.84,12.47-3.8,13.41
		c0.1,0.34,0.26,0.56,0.49,0.66c0.25,0.12,0.59,0.1,0.95-0.06c0.73-0.31,3.27-4.41,4.11-5.76l0.27-0.43
		c0.61-0.97,3.92-8.54,4.45-9.97l0.23-0.64c0.78-2.09,3.14-8.47,3.14-10.2c0-2.22,5.61-13.21,6.01-14
		c1.3-2.6,6.97-11.61,14.83-19.06c9.5-9,14.24-13.06,17-18c4.19-7.51,5-19.97,5.5-23.5c0.07-0.52,0.14-0.96,0.2-1.33
		c0.1-0.61,0.69-3.39,1.55-4.92c1.76-3.13,5.07-2.96,8.58-10.5c3.42-7.33,3.83-10.33,3.83-10.33c0.13,4.36,8.64,15.95,11.74,21.24
		c-2.58,15.26,1.34,26.6,0.69,29.19c-0.22,0.88-1.81,2.77-2.56,5.17c-1.69,5.39-4.23,13.55-4.23,15.76c0,2.99-1.11,23.14-1.56,24.48
		c-0.38,1.67-9.04,40.59-8.91,47.66c0.28,15.81,3.62,31.53,6,38c2.56,6.96,9.15,17.7,9.2,19.49c0.06,2.24-0.32,4.9,0.14,6.83
		c0.28,1.2,0.49,2.07,0.49,2.53c0,0.33-0.54,3.41-1.17,6.81c-1.38,7.49-5.11,20.44-5,24.33c0.59,20.75,6.02,27.13,8.67,34.67
		c0.77,2.19,1.49,4.25,2.08,6.25c2.6,8.92,9.59,31.96,9.59,34.8c0,0.46,0,0.98,0.01,1.54c0.04,4.13,1.01,7.11,0.27,7.94
		c-1.73,1.57-0.58,5.68-0.14,6.63l0.04,0.15c0.23,1.61-1.24,4.43-3.43,6.55c-1.13,1.1-1.84,2.75-2.6,4.51
		c-1.38,3.2-2.94,6.82-7.53,9.12c-0.31,0.16-0.53,0.5-0.63,1.01c-0.25,1.21,0.19,2.96,0.66,3.54c1.41,0.85,23.47,1.39,27.08,0.25
		c2.88-0.91,2.94-8.24,2.17-12.09c-0.74-3.69-1.64-10.25-1.64-11.91l0.05-0.23c0.83-1.84,0.59-5.47-0.55-8.09l-0.05-0.12l0.01-0.13
		c0.04-0.6,1.11-2.63,1.21-5.45c0.3-8.98-0.13-25.69,0.72-28.79c1.05-3.84,8.8-29.55,7.7-43.16c-0.14-1.67-1.67-8.39-3.33-18
		c-1.55-8.97-6.47-18.9-6.56-20.15c-0.07-0.96-0.04-2.11-0.01-3.56c0.03-1.49,1.63-4.71,1.57-6.96c0-0.75,3.02-8.93,4-15.66
		c1.37-9.43,3.33-26.05,4-29.33c0.45-2.17,0.8-4.31,1.07-6.36c0.28,2.06,0.63,4.19,1.08,6.36c0.67,3.29,2.63,19.9,4,29.33
		c0.98,6.74,4,14.91,4,15.66c-0.05,2.25,1.54,5.47,1.57,6.96c0.03,1.46,0.05,2.6-0.01,3.56c-0.09,1.25-5.01,11.18-6.56,20.15
		c-1.66,9.61-3.2,16.33-3.33,18c-1.1,13.61,6.65,39.32,7.7,43.16c0.85,3.1,0.41,19.81,0.72,28.79c0.1,2.82,1.16,4.85,1.21,5.45
		l0.01,0.13l-0.05,0.12c-1.14,2.63-1.38,6.26-0.55,8.09l0.05,0.23c0,1.65-0.91,8.22-1.64,11.91c-0.77,3.85-0.71,11.18,2.17,12.09
		c3.6,1.14,25.67,0.6,27.08-0.25c0.47-0.58,0.91-2.33,0.66-3.54c-0.11-0.52-0.32-0.86-0.63-1.01c-4.59-2.3-6.15-5.92-7.53-9.12
		c-0.75-1.75-1.47-3.4-2.6-4.51c-2.19-2.12-3.66-4.94-3.43-6.55l0.04-0.15c0.44-0.95,1.59-5.06-0.14-6.63
		c-0.74-0.83,0.23-3.82,0.27-7.94c0-0.56,0.01-1.08,0.01-1.54c0-2.84,6.99-25.88,9.59-34.8c0.58-2,1.31-4.07,2.08-6.25
		c2.65-7.54,8.08-13.92,8.67-34.67c0.11-3.9-3.62-16.85-5-24.33c-0.62-3.4-1.16-6.47-1.16-6.81c0-0.46,0.21-1.33,0.49-2.53
		c0.46-1.94,0.09-4.59,0.14-6.83c0.05-1.8,6.63-12.54,9.2-19.49c2.38-6.47,5.72-22.19,6-38c0.13-7.07-8.53-45.99-8.91-47.66
		c-0.45-1.34-1.56-21.5-1.56-24.48c0-2.21-2.55-10.36-4.23-15.76c-0.75-2.4-2.34-4.29-2.56-5.17c-0.65-2.59,3.27-13.93,0.7-29.19
		c3.1-5.29,11.61-16.87,11.74-21.24c0,0,0.42,3,3.83,10.33c3.51,7.54,6.82,7.37,8.58,10.5c0.86,1.53,1.45,4.32,1.55,4.92
		c0.06,0.36,0.12,0.81,0.2,1.33c0.5,3.53,1.3,15.99,5.5,23.5c2.77,4.94,7.5,9,17,18c7.86,7.45,13.54,16.46,14.84,19.06
		c0.39,0.79,6.01,11.78,6.01,14c0,1.74,2.36,8.11,3.13,10.2l0.24,0.64c0.52,1.44,3.84,9.01,4.45,9.97l0.27,0.43
		c0.84,1.35,3.39,5.44,4.11,5.76c0.37,0.16,0.71,0.18,0.95,0.06c0.23-0.1,0.39-0.33,0.49-0.66c0.04-0.94-3.29-12.05-3.8-13.41
		l1.6,1.99c0.51,1.76,1.79,5.07,1.79,5.07c0.28,0.97,2.96,7.67,4.78,10.28c0.32,0.46,1.16,1.21,2.89,0.76
		c0.96-0.25,0.78-4.05,0.78-4.05c0.28,0.95,1.4,3.7,2.78,3.88c0.87,0.12,1.67-0.12,2.21-0.65c0.46-0.45,0.67-1.07,0.58-1.74
		c-0.16-1.3-1.06-4.45-1.07-4.48c0,0,2.16,1.04,2.86,0.88c0.6-0.14,1.2-0.79,1.2-1.78c0-2.05-3.8-11.53-5.23-15.09l-0.31-0.78
		c-1.3-3.25-3.36-9.63-3.54-10.19c-1.04-0.64-1.34-2.29-1.34-2.29c1,1.12,8.46,5.21,11.15,5.47c2.55,0.24,3.3-0.49,4.39-2.2
		C585.82,291.99,585.85,291.83,585.8,291.63z"/>
	<g>
		<path class="st1" d="M512.68,207.78c-1.68,0.44-7.1,0.54,8.17,15.53C522.24,224.69,520.88,205.61,512.68,207.78z"/>
		<g id="trapezius-back">
			<path d="M448.53,88.75c0,2.61,2.48,12.66,3.77,16.95c2.83,9.42,24.08,8.8,27.2,19.67
				c-4.78,0.87-16.48,2.2-30.68,8.28c-0.58-9.85-1.74-39.11-3.19-44.03C447.08,89.77,448.53,88.75,448.53,88.75z"/>
			<path d="M438.72,88.75c0,2.61-2.48,12.66-3.77,16.95c-2.83,9.42-24.08,8.8-27.2,19.67
				c4.78,0.87,16.48,2.2,30.68,8.28c0.58-9.85,1.74-39.11,3.19-44.03C440.17,89.77,438.72,88.75,438.72,88.75z"/>
		</g>
		<g id="neck-back">
			<path d="M458.56,97.31c-0.39-2.11-5.91-6.52-6.82-7.19c-0.91-0.67,1.06,12.71,2.36,15.1
				c1.31,2.39,3.66,5.3,3.83,5.72C458.1,111.35,458.99,99.6,458.56,97.31z"/>
			<path d="M428.69,97.31c0.39-2.11,5.91-6.52,6.82-7.19c0.91-0.67-1.06,12.71-2.36,15.1c-1.31,2.39-3.66,5.3-3.83,5.72
				C429.15,111.35,428.26,99.6,428.69,97.31z"/>
		</g>
		<g id="deltoids-back">
			<path d="M485.25,135.5c8.11,10.72,21.27,28.26,23.15,28.55c1.45-0.58,14.28-15.2,3.23-29.67
				C504.38,124.88,489.6,131.73,485.25,135.5z"/>
			<path d="M402,135.5c-8.11,10.72-21.27,28.26-23.15,28.55c-1.45-0.58-14.28-15.2-3.23-29.67
				C382.88,124.88,397.66,131.73,402,135.5z"/>
		</g>
		<g id="back-upper">
			<path d="M447.12,136.5c2.32-3.48,30.53-12.74,49.5-8.25c-23.03,0.14-23.2,44.6-49.71,56.84
				C445.46,177.12,445.18,139.41,447.12,136.5z"/>
			<path d="M483.38,140.25c2.89,0.15,13.03,19.11,11.73,21.57s-21.73,4.78-23.9,4.64
				C469.03,166.31,480,140.08,483.38,140.25z"/>
			<path d="M440.13,136.5c-2.32-3.48-30.53-12.74-49.5-8.25c23.03,0.14,23.2,44.6,49.71,56.84
				C441.79,177.12,442.07,139.41,440.13,136.5z"/>
			<path d="M403.88,140.25c-2.89,0.15-13.03,19.11-11.73,21.57s21.73,4.78,23.9,4.64
				C418.22,166.31,407.25,140.08,403.88,140.25z"/>
		</g>
		<g id="triceps">
			<path d="M497.74,158.69c30.39,27.81,5.49,42.14,9.26,54.31C486.72,193.59,501.36,167.38,497.74,158.69z"/>
			<path d="M512.38,162.62c13.62,1.25,26.5,18.38,9.38,45.25C518.93,184.63,513.9,167.84,512.38,162.62z"/>
			<path d="M514.38,181.75c0.65,1.95,9.5,25.88,0.65,24.12C511.99,204.35,514.38,181.75,514.38,181.75z"/>
			<path d="M389.51,158.69c-30.39,27.81-5.49,42.14-9.26,54.31C400.53,193.59,385.89,167.38,389.51,158.69z"/>
			<path d="M374.88,162.62c-13.62,1.25-26.5,18.38-9.38,45.25C368.33,184.63,373.35,167.84,374.88,162.62z"/>
			<path d="M372.88,181.75c-0.65,1.95-9.5,25.88-0.65,24.12C375.26,204.35,372.88,181.75,372.88,181.75z"/>
		</g>
		<path class="st1" d="M374.58,207.78c1.68,0.44,7.1,0.54-8.17,15.53C365.01,224.69,366.37,205.61,374.58,207.78z"/>
		<g id="forearms-back">
			<path d="M510.16,225.24c0.12-2.34,3.75,2.45,8.72,1.93s22.48,39.48,25.37,44.21
				C538.87,269.97,509.25,242.88,510.16,225.24z"/>
			<path d="M526.1,216.07c0.07,11.14,3.98,30.68,17.77,48.31C544.36,250.12,531.15,228.87,526.1,216.07z"/>
			<path d="M528.5,212.88c21.62,15,24.68,51.54,25.39,54.09c0.7,2.55-3.75,4.79-4.37,3.1
				C548.91,268.38,539.3,239.06,528.5,212.88z"/>
			<path d="M377.09,225.24c-0.12-2.34-3.75,2.45-8.72,1.93s-22.48,39.48-25.37,44.21
				C348.39,269.97,378,242.88,377.09,225.24z"/>
			<path d="M361.15,216.07c-0.07,11.14-3.98,30.68-17.77,48.31C342.89,250.12,356.1,228.87,361.15,216.07z"/>
			<path d="M358.75,212.88c-21.62,15-24.68,51.54-25.39,54.09c-0.7,2.55,3.75,4.79,4.37,3.1
				C338.34,268.38,347.95,239.06,358.75,212.88z"/>
		</g>
		<g id="hamstrings">
			<path d="M487.66,302.53c0.91,1.81,7.46,31.72,0.96,44.97c-1.45-6.95-6.93-26.97-5.77-29.87
				C484.02,314.73,486.5,300.21,487.66,302.53z"/>
			<path d="M470.66,312.38c0.98-2.7,10.15,6.52,11.04,9.88c2.02,7.67,5.24,21.29,1.48,45.05
				c-3.2,20.18-2.17,14.23-2.5,29.44c-0.98-12.93-5.55-15.32-6.56-19C479.32,366.5,478.2,326.29,470.66,312.38z"/>
			<path d="M464.93,307.62c-0.68,3.71,19.1,34.21,9.07,62.75c-2.03,5.77-11.66,20.97-12.81,21.55
				c2.04-10.2,0.58-13.87,0-19.38C458.52,346.81,462.21,312.38,464.93,307.62z"/>
			<path d="M448.98,298.8c0.29-1.53,11.67,5.53,11.87,8.15c1.02,13.93-9.54,28.63-10.97,60.3
				C448.93,340.67,442.83,331.42,448.98,298.8z"/>
			<path d="M457.45,342.98c0.22-2.38,2.84,33.25,2.55,36.15s-0.49,19.71-1.87,17.22
				C445.62,373.75,455.41,364.73,457.45,342.98z"/>
			<path d="M399.59,302.53c-0.91,1.81-7.46,31.72-0.96,44.97c1.45-6.95,6.93-26.97,5.77-29.87
				S400.75,300.21,399.59,302.53z"/>
			<path d="M416.59,312.38c-0.98-2.7-10.15,6.52-11.04,9.88c-2.02,7.67-5.24,21.29-1.48,45.05
				c3.2,20.18,2.17,14.23,2.5,29.44c0.98-12.93,5.55-15.32,6.56-19C407.93,366.5,409.05,326.29,416.59,312.38z"/>
			<path d="M422.32,307.62c0.68,3.71-19.1,34.21-9.07,62.75c2.03,5.77,11.66,20.97,12.81,21.55
				c-2.04-10.2-0.58-13.87,0-19.38C428.73,346.81,425.04,312.38,422.32,307.62z"/>
			<path d="M438.27,298.8c-0.29-1.53-11.67,5.53-11.87,8.15c-1.02,13.93,9.54,28.63,10.97,60.3
				C438.32,340.67,444.42,331.42,438.27,298.8z"/>
			<path d="M429.8,342.98c-0.22-2.38-2.84,33.25-2.55,36.15s0.49,19.71,1.87,17.22
				C441.63,373.75,431.84,364.73,429.8,342.98z"/>
		</g>
		<g id="calves-back">
			<path d="M469.26,385.42c-0.21-2.04,3.48-4.64,4.06-3.48s11.93,45.47,11.93,51.55c0,6.09-9.51,23.67-10.38,23.38
				s-8.8-5.98-8.51-6.85C466.44,449.81,472.08,412.7,469.26,385.42z"/>
			<path d="M466.95,385.42c-0.58-2.53-16.41,29.6-17.57,39.45s-3.48,33.3,0,33.88c3.48,0.58,14.1-8.72,14.38-11.33
				C463.94,445.82,468.91,393.93,466.95,385.42z"/>
			<path d="M417.99,385.42c0.21-2.04-3.48-4.64-4.06-3.48S402,427.42,402,433.5c0,6.09,9.51,23.67,10.38,23.38
				s8.8-5.98,8.51-6.85C420.81,449.81,415.17,412.7,417.99,385.42z"/>
			<path d="M420.3,385.42c0.58-2.53,16.41,29.6,17.57,39.45s3.48,33.3,0,33.88c-3.48,0.58-14.1-8.72-14.38-11.33
				C423.31,445.82,418.34,393.93,420.3,385.42z"/>
		</g>
		<g id="legs-back">
			<path class="st1" d="M473.98,458.65c1.56,0,2.11-0.52,2.72,2.9c2.32,12.84-10.15,19.77-10.97,61.2
				c-0.07,3.47-2.35,3.07-2.32,2.03c0.76-22.73,3.43-40.17,5.12-46.34C469.62,474.44,471.66,458.65,473.98,458.65z"/>
			<path class="st1" d="M455.45,465.73c-0.39-1.51-2.74-9.78-3.36-6.36c-2.32,12.84,2.87,22.13,3.69,63.56
				c0.07,3.47,2.98,0.49,2.94-0.55c-0.76-22.72-2.36-29.05-2.55-43.58C456.11,473.52,456.54,469.9,455.45,465.73z"/>
			<path class="st1" d="M413.27,458.65c-1.56,0-2.11-0.52-2.72,2.9c-2.32,12.84,10.15,19.77,10.97,61.2
				c0.07,3.47,2.35,3.07,2.32,2.03c-0.76-22.73-3.43-40.17-5.12-46.34C417.63,474.44,415.59,458.65,413.27,458.65z"/>
			<path class="st1" d="M431.8,465.73c0.39-1.51,2.74-9.78,3.36-6.36c2.32,12.84-2.87,22.13-3.69,63.56
				c-0.07,3.47-2.98,0.49-2.94-0.55c0.76-22.72,2.36-29.05,2.54-43.58C431.14,473.52,430.71,469.9,431.8,465.73z"/>
		</g>
		<g id="feet-back">
			<path class="st1" d="M458.09,530.17c0-2.32-5.07,17.38-2.17,19.12s12.6,1.01,16.08,0.43c3.48-0.58-6.08-21.73-6.08-21.73
				s3.91,18.25-3.04,18.69C461.14,546.79,458.09,534.22,458.09,530.17z"/>
			<path class="st1" d="M429.16,530.17c0-2.32,5.07,17.38,2.17,19.12s-12.6,1.01-16.08,0.43c-3.48-0.58,6.08-21.73,6.08-21.73
				s-3.91,18.25,3.04,18.69C426.11,546.79,429.16,534.22,429.16,530.17z"/>
		</g>
		<g id="hands-back">
			<path class="st1" d="M551.24,278.17c-1,0.5-0.76,7.38-0.72,9.79c0.04,2.41,3.78,16.53,7.26,15.98s4.82-3.09,5.49-4.54
				c0.66-1.45,4.97-4.1,5.63-5.45c0.66-1.35-6.07-11.95-7.26-12.71c-1.19-0.76-1.95-3.51-4.01-4.18
				C556.79,276.78,551.83,277.87,551.24,278.17z"/>
			<path class="st1" d="M562.54,280.49c-0.13-0.87,1.54-1.53,2.13-1.25s9.98,5.7,10.94,6.49c3.01,2.45,9.7,4.77,9.28,6.13
				c-0.95,3.13-8.63,1-11.92-1.7C569.69,287.46,562.89,282.83,562.54,280.49z"/>
			<path class="st1" d="M570.96,296.02c-0.76,0.12-2.17,0.45-1.99,2.17c0.17,1.72,6.19,15.86,7.56,17.25
				c1.37,1.4,2.25-0.23,1.82-2.61C577.91,310.46,571.82,295.89,570.96,296.02z"/>
			<path class="st1" d="M566.92,299.72c-0.62,0.52-1.41,1.48-1.82,2.61c-0.41,1.13,7.15,19.55,8.28,19.98
				c1.14,0.41,2.07-0.57,2-2.28C575.32,318.32,567.61,299.14,566.92,299.72z"/>
			<path class="st1" d="M563.26,303.46c-0.89,0.35-1.58,1.04-1.67,2.09c-0.09,1.06,5.07,16.5,7.55,16.08
				c2.48-0.43-0.11-4.91-0.45-5.89C568.35,314.75,563.7,303.28,563.26,303.46z"/>
			<path class="st1" d="M556.3,305.73c-0.14-0.89,2.27,0.83,2.72,1.72c0.46,0.89,3.74,9.39,3,9.62
				C559.4,317.91,556.92,309.61,556.3,305.73z"/>
			<path class="st1" d="M336.01,278.17c1,0.5,0.76,7.38,0.72,9.79s-3.78,16.53-7.26,15.98s-4.82-3.09-5.49-4.54
				c-0.66-1.45-4.97-4.1-5.63-5.45s6.07-11.95,7.26-12.71c1.19-0.76,1.95-3.51,4.01-4.18C330.47,276.78,335.42,277.87,336.01,278.17
				z"/>
			<path class="st1" d="M324.71,280.49c0.13-0.87-1.54-1.53-2.13-1.25s-9.98,5.7-10.94,6.49c-3.01,2.45-9.69,4.77-9.28,6.13
				c0.95,3.13,8.63,1,11.92-1.7C317.56,287.46,324.36,282.83,324.71,280.49z"/>
			<path class="st1" d="M316.29,296.02c0.76,0.12,2.17,0.45,1.99,2.17c-0.17,1.72-6.19,15.86-7.56,17.25
				c-1.37,1.4-2.25-0.23-1.82-2.61C309.34,310.46,315.43,295.89,316.29,296.02z"/>
			<path class="st1" d="M320.33,299.72c0.62,0.52,1.41,1.48,1.82,2.61c0.41,1.13-7.15,19.55-8.28,19.98c-1.14,0.41-2.07-0.57-2-2.28
				C311.93,318.32,319.65,299.14,320.33,299.72z"/>
			<path class="st1" d="M323.99,303.46c0.89,0.35,1.58,1.04,1.67,2.09c0.09,1.06-5.07,16.5-7.55,16.08
				c-2.48-0.43,0.11-4.91,0.45-5.89C318.9,314.75,323.55,303.28,323.99,303.46z"/>
			<path class="st1" d="M330.95,305.73c0.14-0.89-2.27,0.83-2.72,1.72c-0.46,0.89-3.74,9.39-3,9.62
				C327.85,317.91,330.33,309.61,330.95,305.73z"/>
		</g>
		<g id="glutes">
			<path id="glutes-right-2" d="M454.59,258.16c2.61-5.21,14.7-10.59,19.91-8.41c5.21,2.17,8.96,17.25,6.62,25.5
				C478.95,267.86,468.93,260.77,454.59,258.16z"/>
			<path id="glutes-right-1" d="M444.67,265.11c3.48-1.74,37.26,1.86,40.08,20.77c0.65,4.34-1,28.25-6.93,27.99
				c-0.59-12.01-25.5-9.44-33.15-26.93C444.23,281.93,444.23,268.37,444.67,265.11z"/>
			<path id="glutes-left-2" d="M432.66,258.16c-2.61-5.21-14.7-10.59-19.91-8.41c-5.21,2.17-8.96,17.25-6.62,25.5
				C408.3,267.86,418.32,260.77,432.66,258.16z"/>
			<path id="glutes-left-1" d="M442.58,265.11c-3.48-1.74-37.26,1.86-40.08,20.77c-0.65,4.34,1,28.25,6.93,27.99
				c0.59-12.01,25.5-9.44,33.15-26.93C443.02,281.93,443.02,268.37,442.58,265.11z"/>
		</g>
		<g id="lats-back">
			<path id="lats-right" d="M446.38,189.86c6.89-5.55,18.44-15.54,21-19.61c5.56-3.5,10.21-0.86,25.62-3.62
				c4.82,36.89-24.27,46.14-27.12,70.88C458.93,233.86,443.35,214.18,446.38,189.86z"/>
			<path id="lats-left_1_" d="M440.87,189.86c-6.89-5.55-18.44-15.54-21-19.61c-5.56-3.5-10.21-0.86-25.62-3.62
				c-4.82,36.89,24.27,46.14,27.12,70.88C428.32,233.86,443.91,214.18,440.87,189.86z"/>
		</g>
		<g id="abs-back">
			<path d="M476.75,219.75c5.38,3.88-0.09,24.75,0.25,27.12c0.34,2.38-8.29-2.89-9.29-3.44
				C466.7,242.89,475.25,218.67,476.75,219.75z"/>
			<path d="M410.5,219.75c-5.38,3.88,0.09,24.75-0.25,27.12c-0.34,2.38,8.29-2.89,9.29-3.44
				C420.55,242.89,412.01,218.67,410.5,219.75z"/>
		</g>
		<g id="back-lower">
			<path d="M447.57,219.39c0,0,11.65,17.61,15.29,20.59c3.09,2.52-13.35,18.72-14.88,21.52
				C446.44,264.29,445.42,223.02,447.57,219.39z"/>
			<path d="M439.68,219.39c0,0-11.65,17.61-15.29,20.59c-3.09,2.52,13.35,18.72,14.88,21.52
				C440.81,264.29,441.83,223.02,439.68,219.39z"/>
		</g>
	</g>
</g>
</svg>
