<?xml version="1.0" encoding="utf-8"?>
<!-- Generator: Adobe Illustrator 23.1.1, SVG Export Plug-In . SVG Version: 6.00 Build 0)  -->
<svg version="1.1" id="Layer_1" xmlns="http://www.w3.org/2000/svg" xmlns:xlink="http://www.w3.org/1999/xlink" x="0px" y="0px"
	 viewBox="0 0 240.19 152.24" style="enable-background:new 0 0 240.19 152.24;" xml:space="preserve">
<style type="text/css">
	.st0{fill:#CCD5E0;}
	.st1{fill:#4A5568;}
</style>
<g>
	<path class="st0" d="M263.85,151.29c-0.35-1.46-4.03-3.65-7.28-5.59c-2.89-1.73-5.88-3.51-7.45-5.19
		c-3.63-3.88-7.02-4.32-7.07-4.32l-0.21-0.01l-0.15-0.15c-10.33-10.77-7.96-21.49-11.12-31.82c-0.8-2.6-1.55-5.06-2.38-7.43
		c-4.22-11.98-13.29-18.69-16.86-23.1c-2.22-2.74-4.8-5.09-4.25-6.73c5.25-15.69,5.25-33-7.5-46c-1.61-1.64-0.5-8.04-0.5-8.75
		c0-1.05,0.25-2.75-1.5-9.08c-1.1-3.99-4.2-9.8-10.33-14.33c-4.46-3.29-9.88-4.72-19.17-4.33c-2.18,0.09-8.59-3.2-9.75-4
		c-10.85-7.46-10.25-7-18.01-9.77c-0.13-0.79-0.99-3.23-0.24-8.83c-2.63,1.77-8.98,5.77-10.15,6.01c-1.29,0.26-5.91,1.35-8.26,1.73
		c-2.34-0.38-6.97-1.48-8.26-1.73c-1.18-0.23-7.52-4.23-10.15-6.01c0.75,5.61-0.11,8.04-0.24,8.83c-7.76,2.77-7.16,2.31-18.01,9.77
		c-1.16,0.8-7.57,4.09-9.75,4c-9.29-0.39-14.71,1.04-19.17,4.33C49.96-6.68,46.86-0.87,45.76,3.12c-1.75,6.33-1.5,8.03-1.5,9.08
		c0,0.71,1.11,7.11-0.5,8.75c-12.75,13-12.75,30.31-7.5,46c0.55,1.64-2.03,3.99-4.25,6.73c-3.57,4.41-12.65,11.12-16.86,23.1
		c-0.84,2.37-1.59,4.82-2.38,7.43c-3.16,10.33-0.79,21.05-11.12,31.82l-0.15,0.15l-0.21,0.01c-0.05,0-3.44,0.44-7.07,4.32
		c-1.57,1.68-4.56,3.47-7.45,5.19c-3.25,1.94-6.93,4.14-7.28,5.59c-0.05,0.2-0.02,0.37,0.08,0.53c1.09,1.72,1.84,2.45,4.39,2.2
		c2.7-0.26,10.15-4.35,11.15-5.47c0,0-0.3,1.64-1.34,2.29c-0.18,0.56-2.24,6.94-3.54,10.19l-0.31,0.78
		c-1.43,3.57-5.23,13.04-5.23,15.09c0,0.99,0.61,1.65,1.2,1.78c0.7,0.16,2.86-0.88,2.86-0.88c-0.01,0.03-0.91,3.18-1.07,4.48
		c-0.08,0.67,0.12,1.29,0.58,1.74c0.53,0.53,1.34,0.77,2.21,0.65c1.38-0.18,2.49-2.93,2.77-3.88c0,0-0.18,3.81,0.77,4.05
		c1.73,0.44,2.56-0.31,2.89-0.76c1.82-2.61,4.5-9.31,4.78-10.28c0,0,1.28-3.31,1.8-5.07l1.6-1.99c-0.51,1.36-3.84,12.47-3.8,13.41
		c0.1,0.34,0.26,0.56,0.49,0.66c0.25,0.12,0.59,0.1,0.95-0.06c0.73-0.31,3.27-4.41,4.11-5.76l0.27-0.43
		c0.6-0.97,3.92-8.54,4.45-9.97l0.24-0.64c0.78-2.09,3.14-8.47,3.14-10.2c0-2.22,5.61-13.21,6-14c1.3-2.6,6.98-11.61,14.83-19.06
		c9.5-9,14.23-13.06,17-18c4.19-7.51,5-19.97,5.5-23.5c0.07-0.52,0.14-0.96,0.2-1.33c0.1-0.61,0.69-3.39,1.55-4.92
		c1.76-3.13,5.07-2.96,8.58-10.5c3.42-7.33,3.83-10.33,3.83-10.33c0.13,4.36,8.64,15.95,11.74,21.24
		c-2.58,15.26,1.34,26.6,0.69,29.19c-0.22,0.88-1.81,2.77-2.56,5.17c-1.69,5.39-4.23,13.55-4.23,15.76c0,2.99-1.11,23.14-1.56,24.48
		c-0.38,1.67-9.04,40.59-8.91,47.66c0.28,15.81,3.62,31.53,6,38c2.56,6.96,9.15,17.7,9.2,19.49c0.06,2.24-0.32,4.9,0.14,6.83
		c0.28,1.2,0.49,2.07,0.49,2.53c0,0.33-0.54,3.41-1.16,6.81c-1.38,7.49-5.11,20.44-5,24.33c0.59,20.75,6.02,27.13,8.67,34.67
		c0.77,2.19,1.49,4.25,2.08,6.25c2.6,8.92,9.59,31.96,9.59,34.8c0,0.46,0,0.98,0.01,1.54c0.04,4.13,1.01,7.11,0.27,7.94
		c-1.73,1.57-0.58,5.68-0.14,6.63l0.05,0.15c0.23,1.61-1.24,4.43-3.43,6.55c-1.13,1.1-1.84,2.75-2.6,4.51
		c-1.38,3.2-2.93,6.82-7.53,9.12c-0.31,0.16-0.52,0.5-0.63,1.01c-0.25,1.21,0.19,2.96,0.66,3.54c1.41,0.85,23.47,1.39,27.08,0.25
		c2.88-0.91,2.94-8.24,2.17-12.09c-0.74-3.69-1.64-10.25-1.64-11.91l0.05-0.23c0.83-1.84,0.59-5.47-0.55-8.09l-0.05-0.12l0.01-0.13
		c0.04-0.6,1.11-2.63,1.21-5.45c0.31-8.98-0.13-25.69,0.72-28.79c1.05-3.84,8.8-29.55,7.7-43.16c-0.14-1.67-1.67-8.39-3.33-18
		c-1.55-8.97-6.47-18.9-6.56-20.15c-0.07-0.96-0.04-2.11-0.01-3.56c0.03-1.49,1.63-4.71,1.57-6.96c0-0.75,3.02-8.93,4-15.66
		c1.37-9.43,3.33-26.05,4-29.33c0.45-2.17,0.8-4.31,1.07-6.36c0.28,2.06,0.63,4.19,1.07,6.36c0.67,3.29,2.63,19.9,4,29.33
		c0.98,6.74,4,14.91,4,15.66c-0.05,2.25,1.54,5.47,1.57,6.96c0.03,1.46,0.05,2.6-0.01,3.56c-0.09,1.25-5.01,11.18-6.56,20.15
		c-1.66,9.61-3.2,16.33-3.33,18c-1.1,13.61,6.65,39.32,7.7,43.16c0.84,3.1,0.41,19.81,0.72,28.79c0.1,2.82,1.16,4.85,1.21,5.45
		l0.01,0.13l-0.05,0.12c-1.14,2.63-1.38,6.26-0.55,8.09l0.05,0.23c0,1.65-0.91,8.22-1.64,11.91c-0.77,3.85-0.7,11.18,2.17,12.09
		c3.6,1.14,25.67,0.6,27.08-0.25c0.47-0.58,0.91-2.33,0.66-3.54c-0.11-0.52-0.32-0.86-0.63-1.01c-4.59-2.3-6.15-5.92-7.53-9.12
		c-0.75-1.75-1.47-3.4-2.6-4.51c-2.19-2.12-3.66-4.94-3.43-6.55l0.05-0.15c0.44-0.95,1.59-5.06-0.14-6.63
		c-0.74-0.83,0.23-3.82,0.27-7.94c0-0.56,0.01-1.08,0.01-1.54c0-2.84,6.99-25.88,9.59-34.8c0.59-2,1.31-4.07,2.08-6.25
		c2.65-7.54,8.08-13.92,8.67-34.67c0.11-3.9-3.62-16.85-5-24.33c-0.62-3.4-1.16-6.47-1.16-6.81c0-0.46,0.21-1.33,0.49-2.53
		c0.46-1.94,0.09-4.59,0.14-6.83c0.05-1.8,6.63-12.54,9.2-19.49c2.38-6.47,5.72-22.19,6-38c0.13-7.07-8.53-45.99-8.91-47.66
		c-0.45-1.34-1.56-21.5-1.56-24.48c0-2.21-2.55-10.36-4.23-15.76c-0.75-2.4-2.34-4.29-2.56-5.17c-0.65-2.59,3.27-13.93,0.69-29.19
		c3.1-5.29,11.61-16.87,11.74-21.24c0,0,0.42,3,3.83,10.33c3.51,7.54,6.82,7.37,8.58,10.5c0.86,1.53,1.45,4.32,1.55,4.92
		c0.06,0.36,0.12,0.81,0.2,1.33c0.5,3.53,1.31,15.99,5.5,23.5c2.77,4.94,7.5,9,17,18c7.86,7.45,13.53,16.46,14.83,19.06
		c0.39,0.79,6,11.78,6,14c0,1.74,2.36,8.11,3.14,10.2l0.24,0.64c0.52,1.44,3.84,9.01,4.45,9.97l0.27,0.43
		c0.84,1.35,3.39,5.44,4.11,5.76c0.37,0.16,0.71,0.18,0.95,0.06c0.23-0.1,0.39-0.33,0.49-0.66c0.04-0.94-3.29-12.05-3.8-13.41
		l1.6,1.99c0.51,1.76,1.8,5.07,1.8,5.07c0.28,0.97,2.96,7.67,4.78,10.28c0.32,0.46,1.16,1.21,2.89,0.76
		c0.96-0.25,0.77-4.05,0.77-4.05c0.28,0.95,1.4,3.7,2.77,3.88c0.87,0.12,1.67-0.12,2.21-0.65c0.46-0.45,0.66-1.07,0.58-1.74
		c-0.16-1.3-1.06-4.45-1.07-4.48c0,0,2.16,1.04,2.86,0.88c0.6-0.14,1.2-0.79,1.2-1.78c0-2.05-3.8-11.53-5.23-15.09l-0.31-0.78
		c-1.3-3.25-3.36-9.63-3.54-10.19c-1.04-0.64-1.34-2.29-1.34-2.29c1,1.12,8.46,5.21,11.15,5.47c2.55,0.24,3.3-0.49,4.39-2.2
		C263.87,151.65,263.9,151.49,263.85,151.29z M121.43-30.28c-0.05,0-0.09,0-0.1,0h0.05C121.4-30.28,121.41-30.28,121.43-30.28z
		 M121.49-30.28l0.17-0.01l0.17,0.01c-0.06,0-0.11,0-0.17,0C121.61-30.28,121.55-30.28,121.49-30.28z M121.99-30.28
		c-0.01,0-0.05,0-0.1,0c0.01,0,0.03,0,0.05,0H121.99z"/>
	<path class="st1" d="M143.63-62.39c0.29-1.89,0.53-3.87,0.63-5.79c0.31-6.27-1.88-13.16-3.13-15.66
		c-1.25-2.51-6.27-9.71-12.22-11.91c-3.03-1.11-5.38-0.85-7.25-0.85s-4.23-0.27-7.25,0.85c-5.96,2.19-10.96,9.4-12.22,11.91
		c-1.25,2.5-3.45,9.4-3.13,15.66c0.1,2.07,0.38,4.21,0.7,6.24c-1.39,0.29-3.64,1.56-3.27,2.62c0.5,1.46,3.62,13.19,4.7,11.55
		c0.13-0.2,0.22-0.54,0.29-0.99c0.35,4.03,1.08,9.63,1.97,10.97c1.25,1.88,8.46,5.33,10.03,5.64c1.42,0.29,5.93,1.6,7.92,1.83v0.05
		c0.07,0,0.18-0.02,0.27-0.02c0.08,0,0.2,0.02,0.27,0.02v-0.05c1.99-0.23,6.5-1.54,7.92-1.83c1.57-0.31,8.77-3.76,10.03-5.64
		c0.91-1.37,1.66-7.23,2-11.28c0.06,0.37,0.15,0.66,0.26,0.83c1.08,1.64,4.19-10.1,4.7-11.55
		C147.19-60.84,145.03-62.08,143.63-62.39z"/>
	<g>
		<g id="hands">
			<path class="st1" d="M229.64,138.55c-0.99,0.5-0.75,7.38-0.72,9.79c0.04,2.41,3.78,16.52,7.26,15.98
				c3.48-0.55,4.82-3.08,5.48-4.54c0.67-1.45,4.97-4.1,5.63-5.45s-6.07-11.95-7.26-12.71c-1.19-0.76-1.95-3.51-4.01-4.18
				C235.19,137.17,230.23,138.25,229.64,138.55z"/>
			<path class="st1" d="M240.59,139.42c-0.13-0.87,1.54-1.53,2.13-1.25s9.98,5.7,10.94,6.49c3.01,2.45,9.69,4.77,9.28,6.14
				c-0.95,3.13-8.64,1-11.92-1.7C247.74,146.39,240.94,141.77,240.59,139.42z"/>
			<path class="st1" d="M249.36,156.41c-0.76,0.12-2.17,0.45-1.99,2.17c0.17,1.72,6.19,15.86,7.56,17.25
				c1.37,1.4,2.25-0.23,1.82-2.61C256.31,170.84,250.23,156.28,249.36,156.41z"/>
			<path class="st1" d="M245.32,160.11c-0.62,0.52-1.41,1.48-1.82,2.61c-0.42,1.13,7.14,19.55,8.28,19.98
				c1.14,0.41,2.08-0.57,2.01-2.28C253.72,178.71,246.01,159.53,245.32,160.11z"/>
			<path class="st1" d="M241.66,163.85c-0.89,0.35-1.58,1.04-1.67,2.09c-0.09,1.06,5.07,16.5,7.55,16.08
				c2.48-0.43-0.11-4.91-0.45-5.9C246.76,175.14,242.1,163.67,241.66,163.85z"/>
			<path class="st1" d="M234.7,166.11c-0.14-0.89,2.27,0.83,2.72,1.72c0.46,0.89,3.74,9.39,3,9.62
				C237.8,178.3,235.33,170,234.7,166.11z"/>
			<path class="st1" d="M13.78,138.55c0.99,0.5,0.75,7.38,0.72,9.79c-0.04,2.41-3.78,16.52-7.26,15.98
				c-3.48-0.55-4.82-3.08-5.48-4.54c-0.67-1.45-4.97-4.1-5.63-5.45c-0.66-1.35,6.07-11.95,7.26-12.71c1.19-0.76,1.95-3.51,4.01-4.18
				C8.22,137.17,13.18,138.25,13.78,138.55z"/>
			<path class="st1" d="M2.83,139.42c0.13-0.87-1.54-1.53-2.13-1.25s-9.98,5.7-10.94,6.49c-3.01,2.45-9.69,4.77-9.28,6.14
				c0.95,3.13,8.64,1,11.92-1.7C-4.32,146.39,2.48,141.77,2.83,139.42z"/>
			<path class="st1" d="M-5.95,156.41c0.76,0.12,2.17,0.45,1.99,2.17c-0.17,1.72-6.19,15.86-7.56,17.25
				c-1.37,1.4-2.25-0.23-1.82-2.61C-12.9,170.84-6.81,156.28-5.95,156.41z"/>
			<path class="st1" d="M-1.91,160.11c0.62,0.52,1.41,1.48,1.82,2.61c0.42,1.13-7.14,19.55-8.28,19.98
				c-1.14,0.41-2.08-0.57-2.01-2.28C-10.3,178.71-2.59,159.53-1.91,160.11z"/>
			<path class="st1" d="M1.76,163.85c0.89,0.35,1.58,1.04,1.67,2.09c0.09,1.06-5.07,16.5-7.55,16.08c-2.48-0.43,0.11-4.91,0.45-5.9
				C-3.34,175.14,1.31,163.67,1.76,163.85z"/>
			<path class="st1" d="M8.71,166.11c0.14-0.89-2.27,0.83-2.72,1.72c-0.46,0.89-3.74,9.39-3,9.62C5.61,178.3,8.09,170,8.71,166.11z"
				/>
		</g>
		<g id="deltoids">
			<path class="st1" d="M168.46-10.24c5.22,0.22,15.86-0.91,21.95,4.52c3.87,3.45,4.25,14.92,1.75,25.67
				C189.77,11.25,178.68-3.07,168.46-10.24z"/>
			<path class="st1" d="M160.89-8.76c8.92,1.24,25.06,13.42,25.51,28.83C173.96,19.86,161.3,2.23,160.89-8.76z"/>
			<path class="st1" d="M75.95-10.24C70.73-10.02,60.09-11.15,54-5.72c-3.87,3.45-4.25,14.92-1.75,25.67
				C54.65,11.25,65.74-3.07,75.95-10.24z"/>
			<path class="st1" d="M83.53-8.76C74.61-7.52,58.47,4.66,58.02,20.07C70.46,19.86,83.11,2.23,83.53-8.76z"/>
		</g>
		<g id="chest">
			<path id="chest-right" class="st1" d="M124.91,0c1.14-0.78,12.18-12.52,26.17-5.39c12.17,6.21,21.49,25.51,21.33,26
				c-0.22,0.67-27.08,16.62-37.51,16.62c-6.09,0-10.65-4.36-10.65-6.15C124.25,29.3,123.6,0.89,124.91,0z"/>
			<path id="chest-left" class="st1" d="M118.51,0c-1.14-0.78-12.18-12.52-26.17-5.39c-12.17,6.21-21.49,25.51-21.33,26
				c0.22,0.67,27.08,16.62,37.51,16.62c6.09,0,10.65-4.36,10.65-6.15C119.17,29.3,119.82,0.89,118.51,0z"/>
		</g>
		<g id="biceps">
			<path id="biceps-right-2" d="M179.64,22.73c1.78-0.36,14.41,1.28,18.02,3.46c11.38,6.88,11.25,18.25,8.12,26.62
				c-1.51,4.04-1.1,16.15-7,16.15s-19.34-19.56-20.71-25.69C176.71,37.15,175.1,23.63,179.64,22.73z"/>
			<path id="biceps-right-1" d="M190.89,71.77c-0.19,0.03-0.39,0.01-0.58-0.06c-8.89-3.21-13.34-11.25-15.26-14.79
				c-0.34-0.62-0.69-2.74-0.69-2.74c-0.35-0.37-1.49-4.92-1.02-5.22c0.46-0.31,1.12-0.26,1.47,0.11l0.46,0.49
				c2.65,2.86,8.47,16.21,16.9,19.25c0.52,0.19,0.74,0.7,0.49,1.14C192.48,70.25,192.54,71.82,190.89,71.77z"/>
			<path id="biceps-left-2" d="M64.78,22.73c-1.78-0.36-14.41,1.28-18.02,3.46c-11.38,6.88-11.25,18.25-8.12,26.62
				c1.51,4.04,1.1,16.15,7,16.15S64.98,49.4,66.35,43.27C67.7,37.15,69.32,23.63,64.78,22.73z"/>
			<path id="biceps-left-1" d="M53.53,71.77c0.19,0.03,0.39,0.01,0.58-0.06C63,68.5,67.45,60.46,69.37,56.92
				c0.34-0.62,0.69-2.74,0.69-2.74c0.35-0.37,1.49-4.92,1.02-5.22c-0.46-0.31-1.12-0.26-1.47,0.11l-0.46,0.49
				c-2.65,2.86-8.47,16.21-16.9,19.25c-0.52,0.19-0.74,0.7-0.49,1.14C51.93,70.25,51.88,71.82,53.53,71.77z"/>
		</g>
		<g id="forearms">
			<path id="forearm-4-right" d="M202.41,71.86c-1.25,12.88,4.89,19.37,5.67,22.08c1.62,5.66,13.12,17.18,16.44,21.87
				c3.86,5.46,8.07,15.98,9.35,16.2s-5.44-19.37-6.08-21.03C225.11,104.05,226.54,82.61,202.41,71.86z"/>
			<path id="forearm-3-right" d="M189.67,73.64c1.39,0.02,15.19,17.3,14.9,20.44c-0.3,3.14-6.48-0.53-10.44-2.84
				c-3.97-2.31-6.18-4.47-6.06-5.82C188.19,84.08,187.68,73.61,189.67,73.64z"/>
			<path id="forearm-2-right" d="M199.31,97.65c19.77,2.96,27.63,32.44,27.94,34.83c-3.88-5.12-16.8-19.55-17.86-20.9
				C207.26,108.84,201.12,100.63,199.31,97.65z"/>
			<path id="forearm-1-right" d="M192.15,91.93c0,0,0.1,0.17,0.28,0.48c0.21,0.29,0.38,0.81,0.8,1.33
				c0.39,0.53,0.84,1.18,1.32,1.93c0.44,0.75,1.17,1.54,1.77,2.48c1.2,1.89,3.61,2.93,5.16,5.25c0.72,1.2,1.63,2.59,2.44,3.82
				c0.87,1.18,1.75,2.27,2.7,3.42c1.99,2.23,5.04,6.49,7.12,8.41c1.01,0.99,1.68,2.25,2.61,3.16c0.93,0.9,1.19,1.83,2.12,2.5
				c3.6,2.85,5.57,6.13,5.57,6.13c0.06,0.03,0.06,0.11,0.01,0.18c-0.05,0.06-0.5-0.03-0.2,0.04c0,0-3.03-2.54-6.95-5.09
				c-1.02-0.6-1.93-1.44-2.97-2.27c-1.01-0.85-2.08-1.74-3.19-2.66c-2.26-1.82-5.35-6.11-7.56-8.25c-1.08-1.08-2-2.29-3-3.41
				c-0.96-1.15-1.96-2.24-2.76-3.42c-1.58-2.38-2.18-4.47-3.13-6.57c-0.99-2.04-1.66-3.94-2.02-5.25c-0.35-1.3-0.39-2.1-0.39-2.1
				c0-0.07,0.06-0.14,0.13-0.16C192.07,91.86,192.12,91.89,192.15,91.93z"/>
			<path id="forearm-4-left" d="M41.01,71.86c1.25,12.88-4.89,19.37-5.67,22.08c-1.62,5.66-13.12,17.18-16.44,21.87
				c-3.86,5.46-8.07,15.98-9.35,16.2s5.44-19.37,6.08-21.03C18.31,104.05,16.88,82.61,41.01,71.86z"/>
			<path id="forearm-3-left" d="M54.75,73.64c-1.39,0.02-15.19,17.3-14.9,20.44c0.3,3.14,6.48-0.53,10.44-2.84
				c3.97-2.31,6.18-4.47,6.06-5.82C56.22,84.08,56.74,73.61,54.75,73.64z"/>
			<path id="forearm-2-left" d="M45.11,97.65c-19.77,2.96-27.63,32.44-27.94,34.83c3.88-5.12,16.8-19.55,17.86-20.9
				C37.16,108.84,43.29,100.63,45.11,97.65z"/>
			<path id="forearm-1-left" d="M52.41,91.88c0.07,0.02,0.14,0.09,0.13,0.16c0,0-0.04,0.8-0.39,2.1
				c-0.36,1.31-1.03,3.22-2.02,5.25c-0.95,2.09-1.55,4.19-3.13,6.57c-0.8,1.18-1.81,2.27-2.76,3.42c-1,1.12-1.92,2.33-3,3.41
				c-2.21,2.13-5.3,6.43-7.56,8.25c-1.11,0.92-2.18,1.82-3.19,2.66c-1.04,0.83-1.95,1.67-2.97,2.27c-3.92,2.54-6.95,5.09-6.95,5.09
				c0.3-0.07-0.15,0.01-0.2-0.04c-0.05-0.06-0.05-0.14,0.01-0.18c0,0,1.97-3.28,5.57-6.13c0.94-0.67,1.19-1.59,2.12-2.5
				c0.92-0.9,1.6-2.17,2.61-3.16c2.07-1.93,5.12-6.18,7.12-8.41c0.95-1.15,1.84-2.24,2.7-3.42c0.81-1.23,1.72-2.62,2.44-3.82
				c1.55-2.32,3.96-3.36,5.16-5.25c0.6-0.94,1.33-1.73,1.77-2.48c0.47-0.74,0.92-1.39,1.32-1.93c0.41-0.52,0.59-1.04,0.8-1.33
				c0.18-0.31,0.28-0.48,0.28-0.48C52.29,91.89,52.35,91.86,52.41,91.88z"/>
		</g>
		<g id="trapezius">
			<path id="trapezius-right" class="st1" d="M139.9-25c9.76-1.18,19.6,9.3,21.36,11.06s-10.05,2.26-11.06,2.26
				c-1,0-9.05-7.04-10.3-9.05C138.65-22.74,138.16-24.79,139.9-25z"/>
			<path id="trapezius-left" class="st1" d="M104.51-25c-9.76-1.18-19.6,9.3-21.36,11.06s10.05,2.26,11.06,2.26
				c1,0,9.05-7.04,10.3-9.05C105.77-22.74,106.26-24.79,104.51-25z"/>
		</g>
		<g id="neck">
			<path class="st1" d="M126.57-28.21c-4.13,0.9-9.04,0.19-9.36,0.11c-2.19-0.55,4.64,17.09,4.64,17.09l0.05-0.28l0.03,0.17
				C121.94-11.11,128.64-28.66,126.57-28.21z"/>
			<path class="st1" d="M137.39-17.39c1.07,2.13,6.97,6.48,4.47,7.59c-2.51,1.11-8.09,1.04-8.09-0.07S136.83-18.51,137.39-17.39z"/>
			<path class="st1" d="M136.29-34.56c3.62,1.25-0.34,10.08-0.56,11.6S125.95-3.84,125.3-2.53c-0.65,1.3-1.74-7.82-0.65-9.56
				C125.73-13.84,135.46-34.84,136.29-34.56z"/>
			<path class="st1" d="M107.64-32.74c-1.3,0-0.44,8.25-0.22,9.77s9.78,19.12,10.43,20.43c0.65,1.3,1.74-7.82,0.65-9.56
				C117.41-13.84,108.51-32.74,107.64-32.74z"/>
			<path class="st1" d="M107.03-17.39c-1.07,2.13-6.97,6.48-4.47,7.59c2.51,1.11,8.09,1.04,8.09-0.07S107.58-18.51,107.03-17.39z"/>
		</g>
		<g id="abs">
			<path id="abs-9-right" d="M125.33,38.72c-3.13,0.5-0.52,10.39-0.26,11.69c0.26,1.3,16.88,1.3,19.74,6.49
				s0.78-5.72,0.78-7.79C145.59,47.03,138.32,36.64,125.33,38.72z"/>
			<path id="abs-8-right" d="M123.95,55.13c-1.51,0.35,0,12.89,1.03,17.01c0.28,1.12,17.79-1.29,19.07,2.32
				c1.29-3.61,1.55-6.44,1.55-8.5S137.1,52.04,123.95,55.13z"/>
			<path id="abs-7-right" d="M125.52,76.19c-1.14,1.14-0.46,14.72-0.23,15.64c0.23,0.92,5.29-2.07,7.59-2.3
				s10.12,0.46,11.04-0.92s1.38-8.51-0.46-10.81C141.62,75.5,129.89,71.82,125.52,76.19z"/>
			<path id="abs-6-right" d="M132.6,92.89c-2.07,1.65-5.67,2.95-6.35,6.12c-0.68,3.18-1.13,33.79-1.13,36.06
				c0,2.27,1.59,4.31,4.31,4.31c2.72,0,5.44-6.81,6.58-10.43c1.14-3.63,3.63-14.51,4.08-17.69c0.45-3.18,4.08-17.92,2.04-19.28
				C140.08,90.62,134.87,91.07,132.6,92.89z"/>
			<path id="abs-5-right" d="M148.09,86.9c-0.16,2.6-2.84,26.54-3.35,28.71c-0.51,2.17-0.53,8.22,0.67,8
				c1.19-0.22,8.29-3.9,8.62-6.29c0.34-2.39,1.38-16.21,1.38-19.04c0-2.82,7.04-21,0.67-23C155.05,74.95,148.26,84.08,148.09,86.9z"
				/>
			<path id="abs-4-right" d="M149.88,67.01c0,0-0.65,6.95,0.22,7.82c0.87,0.87,6.74-4.13,7.17-5.43
				c0.43-1.3,3.34-12.57,1.6-10.4C157.14,61.18,155.75,64.84,149.88,67.01z"/>
			<path id="abs-3-right" d="M150.52,55.02c-0.25,2.04-1.28,8.67,0,8.92c1.27,0.26,7.65-8.84,8.42-10.88
				c0.77-2.04,0.34-3.71-0.43-3.19C157.75,50.38,150.78,52.98,150.52,55.02z"/>
			<path id="abs-2-right" d="M149.84,44.14c-0.69,1.38-2.03,8.29,1.06,7.78c3.09-0.52,9.75-7.91,9.38-10.25
				C159.84,38.97,150.36,43.11,149.84,44.14z"/>
			<path id="abs-1-right" d="M146.45,35.92c-1.36,1.33,1.2,6.13,2.74,5.67c1.37-0.41,11.7-6.11,11.01-8.87
				C159.62,30.35,146.76,35.62,146.45,35.92z"/>
			<path id="abs-9-left" d="M118.09,38.72c3.13,0.5,0.52,10.39,0.26,11.69c-0.26,1.3-16.88,1.3-19.74,6.49
				s-0.78-5.72-0.78-7.79C97.83,47.03,105.1,36.64,118.09,38.72z"/>
			<path id="abs-8-left" d="M119.47,55.13c1.51,0.35,0,12.89-1.03,17.01c-0.28,1.12-17.79-1.29-19.07,2.32
				c-1.29-3.61-1.55-6.44-1.55-8.5S106.32,52.04,119.47,55.13z"/>
			<path id="abs-7-left" d="M117.89,76.19c1.14,1.14,0.46,14.72,0.23,15.64c-0.23,0.92-5.29-2.07-7.59-2.3
				s-10.12,0.46-11.04-0.92s-1.38-8.51,0.46-10.81C101.8,75.5,113.52,71.82,117.89,76.19z"/>
			<path id="abs-6-left" d="M109.82,92.89c2.07,1.65,5.67,2.95,6.35,6.12c0.68,3.18,1.13,33.79,1.13,36.06
				c0,2.27-1.59,4.31-4.31,4.31s-5.44-6.81-6.58-10.43c-1.14-3.63-3.63-14.51-4.08-17.69c-0.45-3.18-4.08-17.92-2.04-19.28
				C102.33,90.62,107.55,91.07,109.82,92.89z"/>
			<path id="abs-5-left" d="M95.32,86.9c0.16,2.6,2.84,26.54,3.35,28.71c0.51,2.17,0.53,8.22-0.67,8
				c-1.19-0.22-8.29-3.9-8.62-6.29C89.04,114.93,88,101.11,88,98.28c0-2.82-7.04-21-0.67-23C88.36,74.95,95.15,84.08,95.32,86.9z"/>
			<path id="abs-4-left" d="M93.53,67.01c0,0,0.65,6.95-0.22,7.82c-0.87,0.87-6.74-4.13-7.17-5.43
				c-0.44-1.3-3.34-12.57-1.6-10.4C86.28,61.18,87.67,64.84,93.53,67.01z"/>
			<path id="abs-3-left" d="M92.9,55.02c0.25,2.04,1.28,8.67,0,8.92c-1.27,0.26-7.65-8.84-8.42-10.88
				c-0.77-2.04-0.34-3.71,0.43-3.19C85.67,50.38,92.64,52.98,92.9,55.02z"/>
			<path id="abs-2-left" d="M93.58,44.14c0.69,1.38,2.03,8.29-1.06,7.78c-3.09-0.52-9.75-7.91-9.38-10.25
				C83.58,38.97,93.06,43.11,93.58,44.14z"/>
			<path id="abs-1-left" d="M96.96,35.92c1.36,1.33-1.2,6.13-2.74,5.67c-1.37-0.41-11.7-6.11-11.01-8.87
				C83.8,30.35,96.66,35.62,96.96,35.92z"/>
		</g>
		<g id="lats">
			<path id="last-right" class="st1" d="M169.95,25.6c-2.46,2.94-8.21,14.49-8.21,16.67c0,1.81,0.08,19.01,1.76,17.19
				c2.33-2.52,5.89-9.53,6.18-14.68C170.12,37.17,169.29,32.14,169.95,25.6z"/>
			<path id="lats-left" class="st1" d="M73.47,25.6c2.46,2.94,8.21,14.49,8.21,16.67c0,1.81-0.08,19.01-1.76,17.19
				c-2.33-2.52-5.89-9.53-6.18-14.68C73.3,37.17,74.13,32.14,73.47,25.6z"/>
		</g>
		<g id="groin">
			<path class="st1" d="M124.2,146.05c-0.8,1.65-0.6,24.13,2.12,30.18c2.72,6.05,3.1-3.47,3.48-5.71c0.38-2.23,3.57-5.93,2.12-8.55
				C130.46,159.36,124.4,145.64,124.2,146.05z"/>
			<path class="st1" d="M136.54,136.25c-1.22,1.26-9.18,8.04-9.02,9.19c0.24,1.74,4.96,13.19,6.71,14.25s1.41-6.7,3.07-10.96
				c1.77-4.55,13.78-21.85,13.77-22.47C151.07,125.8,141.27,131.38,136.54,136.25z"/>
			<path class="st1" d="M119.22,146.05c0.8,1.65,0.6,24.13-2.12,30.18s-3.1-3.47-3.48-5.71c-0.38-2.23-3.57-5.93-2.12-8.55
				C112.95,159.36,119.02,145.64,119.22,146.05z"/>
			<path class="st1" d="M106.87,136.25c1.22,1.26,9.18,8.04,9.02,9.19c-0.24,1.74-4.96,13.19-6.71,14.25s-1.41-6.7-3.07-10.96
				c-1.77-4.55-13.78-21.85-13.77-22.47C92.35,125.8,102.14,131.38,106.87,136.25z"/>
		</g>
		<g id="quadriceps">
			<path id="quadriceps-right-4" class="st1" d="M155.26,124.19c1.78,19.32-23.18,73.67-28.18,91.42
				C120.87,166.4,151.37,142.57,155.26,124.19z"/>
			<path id="quadriceps-right-3" class="st1" d="M146.54,169.49c2.45-5.08,14.34-50.78,14.62-49.54
				c9.94,44.12-10.9,93.58-12.12,99.25c-1.23,5.67-2.41,22.44-2.6,23.96c-0.2,1.53-2.81,1.34-3.7,0.05
				C141.85,241.91,135.56,192.23,146.54,169.49z"/>
			<path id="quadriceps-right-2" class="st1" d="M165.74,159.94c-2.58,16.6-11.94,52.83-13.33,59.5
				c-1.23,5.87-1.91,17.83-1.87,20.87c0.04,3.04,0.72,5.21,1.81,5.19c0.57-0.01,17.08-21.43,18.32-28.94
				C175.74,201.06,166.96,175.24,165.74,159.94z"/>
			<path id="quadriceps-right-1" class="st1" d="M137.12,193.99c1.73-1.01,0.11,22.12,0.37,25.16s5.13,29.35-0.75,28.56
				s-8.63-19.47-8.7-24.9C127.97,217.38,135.61,194.88,137.12,193.99z"/>
			<path id="quadriceps-left-4" class="st1" d="M88.16,124.19c-1.78,19.32,23.18,73.67,28.18,91.42
				C122.55,166.4,92.05,142.57,88.16,124.19z"/>
			<path id="quadriceps-left-3" class="st1" d="M96.88,169.49c-2.45-5.08-14.34-50.78-14.62-49.54
				c-9.94,44.12,10.9,93.58,12.12,99.25c1.23,5.67,2.41,22.44,2.6,23.96c0.2,1.53,2.81,1.34,3.7,0.05
				C101.56,241.91,107.85,192.23,96.88,169.49z"/>
			<path id="quadriceps-left-2" class="st1" d="M77.67,159.94c2.58,16.6,11.94,52.83,13.33,59.5c1.23,5.87,1.91,17.83,1.87,20.87
				s-0.72,5.21-1.81,5.19c-0.57-0.01-17.08-21.43-18.32-28.94C67.67,201.06,76.46,175.24,77.67,159.94z"/>
			<path id="quadriceps-left-1" class="st1" d="M106.3,193.99c-1.73-1.01-0.11,22.12-0.37,25.16s-5.13,29.35,0.75,28.56
				s8.63-19.47,8.7-24.9C115.45,217.38,107.81,194.88,106.3,193.99z"/>
		</g>
		<g id="calves">
			<path id="calves-right-2" class="st1" d="M133.08,275.94c-0.76,0.78-7.48,26.36-7.42,30.62c0.2,13.5,9.81,48.28,9.85,51.32
				c0.04,3.04,2.25-9.62,2.43-12.45C138.12,342.62,142.89,296.4,133.08,275.94z"/>
			<path id="calves-right-1" class="st1" d="M160.66,278.57c0,0,2.93,22.39,2.42,25.38c-2.54,14.79-14.88,41.91-15.29,43.87
				c-0.41,1.96-5.62,18.29-5.88,15.25c-0.26-3.04,1.38-10.43,1.79-12.61c0.41-2.18,4.82-29.84,5.43-32.88
				C149.74,314.53,160.66,278.57,160.66,278.57z"/>
			<path id="calves-left-2" class="st1" d="M110.34,275.94c0.76,0.78,7.48,26.36,7.42,30.62c-0.2,13.5-9.81,48.28-9.85,51.32
				c-0.04,3.04-2.25-9.62-2.43-12.45C105.29,342.62,100.53,296.4,110.34,275.94z"/>
			<path id="calves-left-1" class="st1" d="M82.76,278.57c0,0-2.93,22.39-2.42,25.38c2.54,14.79,14.88,41.91,15.29,43.87
				s5.62,18.29,5.88,15.25c0.26-3.04-1.38-10.43-1.79-12.61c-0.41-2.18-4.82-29.84-5.43-32.88
				C93.68,314.53,82.76,278.57,82.76,278.57z"/>
		</g>
		<g id="feet">
			<path class="st1" d="M142.32,374.75c1.29-0.19,1.6,5.63,1.63,8.02s2.47,6.27,1.19,7.81s-4.91,3.67-7.04,6.3
				c-2.14,2.64-5.11,7.89-5.35,5.94c-0.25-1.95-1.01-10.42,0.05-12.61C133.84,388.02,137.33,375.46,142.32,374.75z"/>
			<path class="st1" d="M146.95,394.02c0.85,1.65,9.6,12.06,9.63,13.8c0.02,1.74-11.77,2.16-13.08,2.18
				c-1.3,0.02-1.37-0.04-2.51-3.5c-1.13-3.46-1.18-7.16-0.32-8.04C141.53,397.59,146.51,393.16,146.95,394.02z"/>
			<path class="st1" d="M137.25,400.5c-1.14,0.25-3.2,4.17-3.19,5.48c0.02,1.3-0.37,3.55,0.71,3.54c1.09-0.01,4.36,1.03,4.55-1.15
				C139.51,406.19,139.42,400.04,137.25,400.5z"/>
			<path class="st1" d="M134.74,369.53c0.74-0.45,3.15-2.48,4.49-3.29c1.34-0.81,2.71,2.72,1.59,3.55
				c-1.12,0.82-6.1,10.62-6.58,11.68C133.76,382.54,133.4,370.35,134.74,369.53z"/>
			<path class="st1" d="M101.1,374.75c-1.29-0.19-1.6,5.63-1.63,8.02s-2.47,6.27-1.19,7.81s4.91,3.67,7.04,6.3
				c2.14,2.64,5.11,7.89,5.35,5.94c0.25-1.95,1.01-10.42-0.05-12.61C109.57,388.02,106.09,375.46,101.1,374.75z"/>
			<path class="st1" d="M96.47,394.02c-0.85,1.65-9.6,12.06-9.63,13.8c-0.02,1.74,11.77,2.16,13.08,2.18
				c1.3,0.02,1.37-0.04,2.51-3.5c1.13-3.46,1.18-7.16,0.32-8.04C101.89,397.59,96.91,393.16,96.47,394.02z"/>
			<path class="st1" d="M106.17,400.5c1.14,0.25,3.2,4.17,3.19,5.48c-0.02,1.3,0.37,3.55-0.71,3.54c-1.09-0.01-4.36,1.03-4.55-1.15
				C103.9,406.19,104,400.04,106.17,400.5z"/>
			<path class="st1" d="M108.68,369.53c-0.74-0.45-3.15-2.48-4.49-3.29c-1.34-0.81-2.71,2.72-1.59,3.55
				c1.12,0.82,6.1,10.62,6.58,11.68C109.66,382.54,110.02,370.35,108.68,369.53z"/>
		</g>
		<g id="legs">
			<path class="st1" d="M135.24,249.21c0.31,14.55,17.5,23.73,6.17,49.1C141.42,288.54,130.77,274.08,135.24,249.21z"/>
			<path class="st1" d="M158.51,242.22c0.47-1.9-2.11,20.1-2.05,22.07c0.05,1.97-6.23,3.7-7.9,5.88c-0.22-1.6,1.13-5.79,1.48-7.29
				C150.38,261.38,156.2,251.62,158.51,242.22z"/>
			<path class="st1" d="M139.68,253.38c-0.04-2.76,2.33-3.66,4.97-3.7c2.64-0.03,4.55,0.81,4.58,3.57
				c0.03,2.32-4.91,14.28-5.8,12.98c-0.82-1.19-2.61-6.95-3.09-9.89C139.93,255.3,139.69,254.24,139.68,253.38z"/>
			<path class="st1" d="M155.68,270.41c1.35,3.67,0.68,18.46-2.03,26.76c-2.72,8.29-6.84,25.08-8.07,30.53
				c-1.23,5.45-6.51,33.55-6.91,35.95c-0.4,2.39-2.57,2.86-2.39-0.19c0.18-3.04,4.35-16.14,4.53-19.18s1.25-34.86,3.24-44.46
				C146.35,288.62,155.04,268.67,155.68,270.41z"/>
			<path class="st1" d="M108.18,249.21c-0.31,14.55-17.5,23.73-6.17,49.1C102,288.54,112.65,274.08,108.18,249.21z"/>
			<path class="st1" d="M84.91,242.22c-0.47-1.9,2.11,20.1,2.05,22.07c-0.05,1.97,6.23,3.7,7.9,5.88c0.22-1.6-1.13-5.79-1.48-7.29
				C93.04,261.38,87.22,251.62,84.91,242.22z"/>
			<path class="st1" d="M103.74,253.38c0.04-2.76-2.33-3.66-4.97-3.7c-2.64-0.03-4.55,0.81-4.59,3.57
				c-0.03,2.32,4.91,14.28,5.8,12.98c0.82-1.19,2.61-6.95,3.09-9.89C103.48,255.3,103.73,254.24,103.74,253.38z"/>
			<path class="st1" d="M87.73,270.41c-1.35,3.67-0.68,18.46,2.03,26.76c2.72,8.29,6.84,25.08,8.07,30.53s6.51,33.55,6.91,35.95
				c0.4,2.39,2.57,2.86,2.39-0.19c-0.18-3.04-4.35-16.14-4.53-19.18s-1.25-34.86-3.24-44.46C97.07,288.62,88.38,268.67,87.73,270.41
				z"/>
		</g>
	</g>
</g>
</svg>
